<svg xmlns="http://www.w3.org/2000/svg" xmlns:xlink="http://www.w3.org/1999/xlink" xmlns:lucid="lucid" width="1062" height="725"><g transform="translate(-798 -1255)" lucid:page-tab-id="0_0"><path d="M955 1611.36c0 31.8-25.76 57.63-57.5 57.63s-57.5-25.83-57.5-57.64c0-31.8 25.76-57.63 57.5-57.63s57.5 25.82 57.5 57.63z" fill="#9d5025"/><path d="M955 1606.63c0 31.8-25.76 57.63-57.5 57.63s-57.5-25.82-57.5-57.63c0-31.8 25.76-57.63 57.5-57.63s57.5 25.82 57.5 57.63z" fill="#f58536"/><path d="M849.15 1589.8h20.88v33.65h-20.88v-33.64zM915.88 1566.83h18.63v18.67H915.9v-18.67zM915.88 1597.3h18.63v18.66H915.9v-18.67zM915.88 1627.77h18.63v18.67H915.9v-18.67z" fill="#fff"/><path d="M910.72 1609.07l3.12-1.5 2.04-1-2.04-1-2.76-1.38-8.3-4.12v4.1H877.8l28.36-18.22 2.25 3.5 4.7-7.97 1.37-2.34 1.38-2.32-2.66.3-3 .36-8.88 1.07 2.14 3.27-34.8 22.35-3.82 2.43 4.6 2.92 34.02 21.87-2.14 3.27 8.87 1.06 3.02.36 2.66.3-1.38-2.32-1.38-2.33-4.7-7.98-2.24 3.5-28.36-18.23h24.95v4l7.95-4z" fill="#fff"/><use xlink:href="#a" transform="matrix(1,0,0,1,840,1669) translate(32.808641975308646 17.77777777777778)"/><use xlink:href="#b" transform="matrix(1,0,0,1,840,1669) translate(13.734567901234563 44.44444444444444)"/><path d="M1200 1559h120v120h-120v-120z" stroke="#fff" stroke-opacity="0" stroke-width="2" fill="#d86613"/><path d="M1296.8 1623.8h-8.02v-3.18h8.02v-38.44h-38.44v8.02h-3.18v-8.02c0-1.75 1.44-3.18 3.18-3.18h38.44c1.75 0 3.18 1.43 3.18 3.18v38.44c0 1.75-1.43 3.18-3.18 3.18zM1261.6 1659h-38.44c-1.74 0-3.18-1.43-3.18-3.18v-38.44c0-1.75 1.44-3.18 3.18-3.18h8.02v3.18h-8.02v38.44h38.44v-8.02h3.18v8.02c0 1.75-1.43 3.18-3.18 3.18z" stroke="#fff" stroke-opacity="0" stroke-width="2" fill="#fff"/><path d="M1285.6 1604.6v-3.2h-4.8c-.12-1.7-1.5-3.08-3.2-3.2v-4.8h-3.2v4.8h-4.77v-4.8h-3.23v4.8h-4.8v-4.8h-3.2v4.8h-4.8v-4.8h-3.17v4.8h-4.82v-4.8h-3.2v4.8c-1.7.12-3.08 1.5-3.2 3.2h-4.8v3.2h4.8v4.83h-4.8v3.17h4.8v4.8h-4.8v3.2h4.8v4.8h-4.8v3.23h4.8v4.76h-4.8v3.2h4.8c.12 1.7 1.5 3.08 3.2 3.2v4.8h3.2v-4.8h4.83v4.8h3.17v-4.8h4.8v4.8h3.2v-4.8h4.8v4.8h3.23v-4.8h4.76v4.8h3.2v-4.8c1.7-.12 3.08-1.5 3.2-3.2h4.8v-3.2h-4.8v-4.77h4.8v-3.23h-4.8v-4.8h4.8v-3.2h-4.8v-4.8h4.8v-3.17h-4.8v-4.82zm-8 31.7c0 .16-.14.3-.3.3h-34.6c-.16 0-.3-.14-.3-.3v-34.6c0-.16.14-.3.3-.3h34.6c.16 0 .3.14.3.3z" stroke="#fff" stroke-opacity="0" stroke-width="2" fill="#fff"/><use xlink:href="#c" transform="matrix(1,0,0,1,1170,1688) translate(24.629629629629633 17.77777777777778)"/><use xlink:href="#d" transform="matrix(1,0,0,1,1170,1688) translate(112.22222222222223 17.77777777777778)"/><path d="M1200 1760h120v120h-120v-120z" stroke="#fff" stroke-opacity="0" stroke-width="2" fill="#d86613"/><path d="M1296.8 1824.8h-8.02v-3.18h8.02v-38.44h-38.44v8.02h-3.18v-8.02c0-1.75 1.44-3.18 3.18-3.18h38.44c1.75 0 3.18 1.43 3.18 3.18v38.44c0 1.75-1.43 3.18-3.18 3.18zM1261.6 1860h-38.44c-1.74 0-3.18-1.43-3.18-3.18v-38.44c0-1.75 1.44-3.18 3.18-3.18h8.02v3.18h-8.02v38.44h38.44v-8.02h3.18v8.02c0 1.75-1.43 3.18-3.18 3.18z" stroke="#fff" stroke-opacity="0" stroke-width="2" fill="#fff"/><path d="M1285.6 1805.6v-3.2h-4.8c-.12-1.7-1.5-3.08-3.2-3.2v-4.8h-3.2v4.8h-4.77v-4.8h-3.23v4.8h-4.8v-4.8h-3.2v4.8h-4.8v-4.8h-3.17v4.8h-4.82v-4.8h-3.2v4.8c-1.7.12-3.08 1.5-3.2 3.2h-4.8v3.2h4.8v4.83h-4.8v3.17h4.8v4.8h-4.8v3.2h4.8v4.8h-4.8v3.23h4.8v4.76h-4.8v3.2h4.8c.12 1.7 1.5 3.08 3.2 3.2v4.8h3.2v-4.8h4.83v4.8h3.17v-4.8h4.8v4.8h3.2v-4.8h4.8v4.8h3.23v-4.8h4.76v4.8h3.2v-4.8c1.7-.12 3.08-1.5 3.2-3.2h4.8v-3.2h-4.8v-4.77h4.8v-3.23h-4.8v-4.8h4.8v-3.2h-4.8v-4.8h4.8v-3.17h-4.8v-4.82zm-8 31.7c0 .16-.14.3-.3.3h-34.6c-.16 0-.3-.14-.3-.3v-34.6c0-.16.14-.3.3-.3h34.6c.16 0 .3.14.3.3z" stroke="#fff" stroke-opacity="0" stroke-width="2" fill="#fff"/><use xlink:href="#c" transform="matrix(1,0,0,1,1170,1889) translate(24.629629629629633 17.77777777777778)"/><use xlink:href="#d" transform="matrix(1,0,0,1,1170,1889) translate(112.22222222222223 17.77777777777778)"/><path d="M1200 1360h120v120h-120v-120z" stroke="#fff" stroke-opacity="0" stroke-width="2" fill="#d86613"/><path d="M1296.8 1424.8h-8.02v-3.18h8.02v-38.44h-38.44v8.02h-3.18v-8.02c0-1.75 1.44-3.18 3.18-3.18h38.44c1.75 0 3.18 1.43 3.18 3.18v38.44c0 1.75-1.43 3.18-3.18 3.18zM1261.6 1460h-38.44c-1.74 0-3.18-1.43-3.18-3.18v-38.44c0-1.75 1.44-3.18 3.18-3.18h8.02v3.18h-8.02v38.44h38.44v-8.02h3.18v8.02c0 1.75-1.43 3.18-3.18 3.18z" stroke="#fff" stroke-opacity="0" stroke-width="2" fill="#fff"/><path d="M1285.6 1405.6v-3.2h-4.8c-.12-1.7-1.5-3.08-3.2-3.2v-4.8h-3.2v4.8h-4.77v-4.8h-3.23v4.8h-4.8v-4.8h-3.2v4.8h-4.8v-4.8h-3.17v4.8h-4.82v-4.8h-3.2v4.8c-1.7.12-3.08 1.5-3.2 3.2h-4.8v3.2h4.8v4.83h-4.8v3.17h4.8v4.8h-4.8v3.2h4.8v4.8h-4.8v3.23h4.8v4.76h-4.8v3.2h4.8c.12 1.7 1.5 3.08 3.2 3.2v4.8h3.2v-4.8h4.83v4.8h3.17v-4.8h4.8v4.8h3.2v-4.8h4.8v4.8h3.23v-4.8h4.76v4.8h3.2v-4.8c1.7-.12 3.08-1.5 3.2-3.2h4.8v-3.2h-4.8v-4.77h4.8v-3.23h-4.8v-4.8h4.8v-3.2h-4.8v-4.8h4.8v-3.17h-4.8v-4.82zm-8 31.7c0 .16-.14.3-.3.3h-34.6c-.16 0-.3-.14-.3-.3v-34.6c0-.16.14-.3.3-.3h34.6c.16 0 .3.14.3.3z" stroke="#fff" stroke-opacity="0" stroke-width="2" fill="#fff"/><use xlink:href="#c" transform="matrix(1,0,0,1,1170,1489) translate(24.629629629629633 17.77777777777778)"/><use xlink:href="#d" transform="matrix(1,0,0,1,1170,1489) translate(112.22222222222223 17.77777777777778)"/><path d="M955.9 1613.33h225.6" stroke="#5e5e5e" stroke-width="2" fill="none"/><path d="M955.94 1614.33h-1.07l.1-2h.97z" fill="#5e5e5e"/><path d="M1196.76 1613.33l-14.26 4.64v-9.28z" stroke="#5e5e5e" stroke-width="2" fill="#5e5e5e"/><path d="M1640 1680h120v120h-120v-120z" stroke="#fff" stroke-opacity="0" stroke-width="2" fill="#3b48cc"/><path d="M1717.53 1725.17c0-4.63-9.1-6.8-17.6-6.8-8.5 0-17.6 2.17-17.6 6.8 0 .26.02.43.06.7v28.85c-.08 4.83 9.06 6.86 17.6 6.86 8.57 0 17.6-2.1 17.6-6.74v-29.67zm-17.57-3.6c9.3 0 14.4 2.56 14.4 3.6 0 1.03-5.05 3.58-14.4 3.58-9.4 0-14.4-2.5-14.4-3.58 0-1.04 5.05-3.6 14.4-3.6zm14.4 33.27c0 1.04-5.05 3.55-14.4 3.55-9.35 0-14.4-2.52-14.4-3.56v-5.05c3.36 1.85 9.04 2.7 14.4 2.7 5.36 0 10.97-.85 14.4-2.67zm0-9.1c0 1.03-5.05 3.58-14.4 3.58-9.4 0-14.4-2.55-14.4-3.6h.04v-6.08c3.4 1.8 9.03 2.68 14.4 2.68 5.36 0 10.97-.87 14.4-2.64zm0-10.2c0 1.03-5.05 3.62-14.4 3.62-9.4 0-14.4-2.6-14.4-3.63h.04v-6.22c3.42 1.83 9 2.65 14.4 2.65s11.07-.87 14.4-2.72zM1665.46 1776.82H1676v3.2h-14.4c-.88 0-1.6-.72-1.6-1.6V1764h3.2v10.5l12-11.98 2.24 2.26zM1740 1764.02v14.4c0 .9-.7 1.6-1.6 1.6H1724v-3.2h10.54l-11.82-11.85 2.26-2.25 11.82 11.8v-10.5zM1740 1701.62v14.4h-3.2v-10.57l-11.82 11.83-2.26-2.26 11.8-11.8H1724v-3.2h14.4c.9 0 1.6.7 1.6 1.6zM1677.44 1715.2l-2.23 2.24-12-12V1716h-3.2v-14.4c0-.9.72-1.62 1.6-1.62h14.4v3.2h-10.54zM1675.46 1754.34c-9.78-3.5-15.38-8.9-15.38-14.74s5.6-11.2 15.38-14.74l1.08 3c-8.3 3.02-13.27 7.38-13.27 11.74s4.98 8.72 13.27 11.73zM1723.65 1754.7l-1.03-3.06c8.88-3 14.18-7.48 14.18-12.04 0-4.56-5.3-9.05-14.18-12.07l1.03-3.02c10.4 3.5 16.35 9.03 16.35 15.1s-5.96 11.56-16.35 15.1z" stroke="#fff" stroke-opacity="0" stroke-width="2" fill="#fff"/><use xlink:href="#c" transform="matrix(1,0,0,1,1610,1809) translate(22.808641975308646 17.77777777777778)"/><use xlink:href="#e" transform="matrix(1,0,0,1,1610,1809) translate(110.40123456790124 17.77777777777778)"/><path d="M1659.78 1445.36h75.44c19.78 0 19.78 0 19.78 19.72v75.2c0 19.7 0 19.7-19.78 19.7h-75.44c-19.78 0-19.78 0-19.78-19.7v-75.2c0-19.72 0-19.72 19.78-19.72z" fill="#19486f"/><path d="M1659.78 1440h75.44c19.78 0 19.78 0 19.78 19.72v75.2c0 19.7 0 19.7-19.78 19.7h-75.44c-19.78 0-19.78 0-19.78-19.7v-75.2c0-19.72 0-19.72 19.78-19.72z" fill="#2e73b8"/><path d="M1738.72 1476.22v-8.63h-10.9v-10.86h-8.64v10.85h-4.3v-10.86h-8.73v10.85h-4.3v-10.86h-8.73v10.85h-4.28v-10.86h-8.74v10.85h-4.3v-10.86h-8.64v10.85h-10.9v8.62h10.9v4.27h-10.9v8.7h10.9v4.28h-10.9v8.7h10.9v4.28h-10.9v8.72h10.9v4.27h-10.9v8.63h10.9v10.85h8.65v-10.85h4.3v10.85h8.74v-10.85h4.28v10.85h8.74v-10.85h4.3v10.85h8.73v-10.85h4.28v10.85h8.65v-10.85h10.9v-8.63h-10.9v-4.27h10.9v-8.72h-10.9v-4.27h10.9v-8.72h-10.9v-4.28h10.9v-8.7h-10.9v-4.28h10.9z" fill="#fff"/><path d="M1680.13 1478.38h21.53c5.65-.35 10.48 3.9 10.85 9.5 0 .35.05.62 0 .93.25 4.37-2.35 8.15-6.48 9.5v.13c4.33 1.05 5.68 5.52 5.95 9.38.17 2.38.44 7.3 1.96 9.47h-8.3c-1.06-2.18-.92-6.2-1.36-9.27-.6-4-2.17-5.87-6.53-5.87h-8.92v15.14h-8.68zm8.7 17.28h9.8c3.78 0 5.84-1.63 5.84-5.5 0-3.84-2.06-5.32-5.85-5.32h-9.8z" fill="#2e73b8"/><use xlink:href="#f" transform="matrix(1,0,0,1,1640,1560) translate(29.166666666666664 17.77777777777778)"/><path d="M955.9 1613.33H1064c3.3 0 6-2.7 6-6V1426c0-3.3 2.7-6 6-6h105.5" stroke="#5e5e5e" stroke-width="2" fill="none"/><path d="M955.94 1614.33h-1.07l.1-2h.97z" fill="#5e5e5e"/><path d="M1196.76 1420l-14.26 4.64v-9.28z" stroke="#5e5e5e" stroke-width="2" fill="#5e5e5e"/><path d="M955.9 1613.33H1064c3.3 0 6 2.7 6 6V1814c0 3.3 2.7 6 6 6h105.5" stroke="#5e5e5e" stroke-width="2" fill="none"/><path d="M955.94 1614.33h-1.07l.1-2h.97z" fill="#5e5e5e"/><path d="M1196.76 1820l-14.26 4.64v-9.28z" stroke="#5e5e5e" stroke-width="2" fill="#5e5e5e"/><path d="M1321 1420h153c3.3 0 6 2.7 6 6v78c0 3.3 2.7 6 6 6h135.5" stroke="#5e5e5e" stroke-width="2" fill="none"/><path d="M1321.03 1421H1320v-2h1.03z" fill="#5e5e5e"/><path d="M1636.76 1510l-14.26 4.64v-9.28z" stroke="#5e5e5e" stroke-width="2" fill="#5e5e5e"/><path d="M1321 1619h153c3.3 0 6-2.7 6-6v-97c0-3.3 2.7-6 6-6h135.5" stroke="#5e5e5e" stroke-width="2" fill="none"/><path d="M1321.03 1620H1320v-2h1.03z" fill="#5e5e5e"/><path d="M1636.76 1510l-14.26 4.64v-9.28z" stroke="#5e5e5e" stroke-width="2" fill="#5e5e5e"/><path d="M1321 1820h153c3.3 0 6-2.7 6-6v-298c0-3.3 2.7-6 6-6h135.5" stroke="#5e5e5e" stroke-width="2" fill="none"/><path d="M1321.03 1821H1320v-2h1.03z" fill="#5e5e5e"/><path d="M1636.76 1510l-14.26 4.64v-9.28z" stroke="#5e5e5e" stroke-width="2" fill="#5e5e5e"/><path d="M1321 1420h153c3.3 0 6 2.7 6 6v308c0 3.3 2.7 6 6 6h135.5" stroke="#5e5e5e" stroke-width="2" fill="none"/><path d="M1321.03 1421H1320v-2h1.03z" fill="#5e5e5e"/><path d="M1636.76 1740l-14.26 4.64v-9.28z" stroke="#5e5e5e" stroke-width="2" fill="#5e5e5e"/><path d="M1321 1619h153c3.3 0 6 2.7 6 6v109c0 3.3 2.7 6 6 6h135.5" stroke="#5e5e5e" stroke-width="2" fill="none"/><path d="M1321.03 1620H1320v-2h1.03z" fill="#5e5e5e"/><path d="M1636.76 1740l-14.26 4.64v-9.28z" stroke="#5e5e5e" stroke-width="2" fill="#5e5e5e"/><path d="M1321 1820h153c3.3 0 6-2.7 6-6v-68c0-3.3 2.7-6 6-6h135.5" stroke="#5e5e5e" stroke-width="2" fill="none"/><path d="M1321.03 1821H1320v-2h1.03z" fill="#5e5e5e"/><path d="M1636.76 1740l-14.26 4.64v-9.28z" stroke="#5e5e5e" stroke-width="2" fill="#5e5e5e"/><path d="M1000 1306c0-3.3 2.7-6 6-6h788c3.3 0 6 2.7 6 6v628c0 3.3-2.7 6-6 6h-788c-3.3 0-6-2.7-6-6z" stroke="#248814" stroke-width="3" fill="#fff" fill-opacity="0"/><path d="M1000 1300h56v56h-56v-56z" stroke="#fff" stroke-opacity="0" fill="#248814"/><path d="M1031.76 1328.3h-1.18v-1.1c-.12-1.73-1.48-3.07-3.2-3.2-1.9-.13-3.54 1.3-3.67 3.2v1.07h-1.17c-.44 0-.8.36-.8.8v6.13c0 .44.36.8.8.8h9.23c.44 0 .8-.36.8-.8v-6.1c0-.44-.36-.8-.8-.8zm-6.4-1.06c.1-1.02 1-1.77 2-1.67.9.08 1.58.77 1.67 1.67v1.06h-3.72zm5.65 7.08h-7.67v-4.42h7.63z" stroke="#fff" stroke-opacity="0" fill="#fff"/><path d="M1042.27 1325.74c-.08-2.44-1.58-4.47-3.87-5.3-1.58-.46-3.16-.13-4.4.9-.68-1.44-1.47-2.6-2.6-3.75-3.24-3.36-7.94-4.3-12.18-2.4-4.04 1.9-6.4 5.63-6.54 10.05v.7c-3.4.98-5.66 4.08-5.5 7.65v.63c.4 4.28 3.92 7.52 8.2 7.47h26s7.42-.63 7.42-8.1c.04-3.9-2.66-7.2-6.53-7.86zm-.96 14.4h-25.9c-3.47.05-6.3-2.53-6.6-5.97v-.52c-.15-3.05 1.93-5.7 4.92-6.3.38-.12.63-.48.6-.9-.06-.4-.06-.73 0-1.14.07-3.78 2.1-6.94 5.52-8.6 1.25-.56 2.4-.8 3.83-.84 2.62.08 4.87 1.04 6.7 2.94 1.25 1.3 2.04 2.6 2.62 4.3.03.15.1.28.24.37.37.27.87.2 1.12-.17.83-1.18 2.25-1.67 3.62-1.3 1.8.72 2.87 2.4 2.83 4.32-.07.4.22.82.64.9 3.57.36 6.2 3.55 5.82 7.12-.3 3.13-2.7 5.52-5.82 5.85z" stroke="#fff" stroke-opacity="0" fill="#fff"/><g><use xlink:href="#g" transform="matrix(1,0,0,1,1071,1320) translate(0 14.4)"/><use xlink:href="#h" transform="matrix(1,0,0,1,1071,1320) translate(55.5 14.4)"/><use xlink:href="#i" transform="matrix(1,0,0,1,1071,1320) translate(116.4 14.4)"/></g><defs><path fill="#333" d="M30 0v-248h33v221h125V0H30" id="j"/><path fill="#333" d="M100-194c62-1 85 37 85 99 1 63-27 99-86 99S16-35 15-95c0-66 28-99 85-99zM99-20c44 1 53-31 53-75 0-43-8-75-51-75s-53 32-53 75 10 74 51 75" id="k"/><path fill="#333" d="M141-36C126-15 110 5 73 4 37 3 15-17 15-53c-1-64 63-63 125-63 3-35-9-54-41-54-24 1-41 7-42 31l-33-3c5-37 33-52 76-52 45 0 72 20 72 64v82c-1 20 7 32 28 27v20c-31 9-61-2-59-35zM48-53c0 20 12 33 32 33 41-3 63-29 60-74-43 2-92-5-92 41" id="l"/><path fill="#333" d="M85-194c31 0 48 13 60 33l-1-100h32l1 261h-30c-2-10 0-23-3-31C134-8 116 4 85 4 32 4 16-35 15-94c0-66 23-100 70-100zm9 24c-40 0-46 34-46 75 0 40 6 74 45 74 42 0 51-32 51-76 0-42-9-74-50-73" id="m"/><g id="a"><use transform="matrix(0.06172839506172839,0,0,0.06172839506172839,0,0)" xlink:href="#j"/><use transform="matrix(0.06172839506172839,0,0,0.06172839506172839,12.345679012345679,0)" xlink:href="#k"/><use transform="matrix(0.06172839506172839,0,0,0.06172839506172839,24.691358024691358,0)" xlink:href="#l"/><use transform="matrix(0.06172839506172839,0,0,0.06172839506172839,37.03703703703704,0)" xlink:href="#m"/></g><path fill="#333" d="M160-131c35 5 61 23 61 61C221 17 115-2 30 0v-248c76 3 177-17 177 60 0 33-19 50-47 57zm-97-11c50-1 110 9 110-42 0-47-63-36-110-37v79zm0 115c55-2 124 14 124-45 0-56-70-42-124-44v89" id="n"/><path fill="#333" d="M24 0v-261h32V0H24" id="o"/><path fill="#333" d="M117-194c89-4 53 116 60 194h-32v-121c0-31-8-49-39-48C34-167 62-67 57 0H25l-1-190h30c1 10-1 24 2 32 11-22 29-35 61-36" id="p"/><path fill="#333" d="M96-169c-40 0-48 33-48 73s9 75 48 75c24 0 41-14 43-38l32 2c-6 37-31 61-74 61-59 0-76-41-82-99-10-93 101-131 147-64 4 7 5 14 7 22l-32 3c-4-21-16-35-41-35" id="q"/><path fill="#333" d="M100-194c63 0 86 42 84 106H49c0 40 14 67 53 68 26 1 43-12 49-29l28 8c-11 28-37 45-77 45C44 4 14-33 15-96c1-61 26-98 85-98zm52 81c6-60-76-77-97-28-3 7-6 17-6 28h103" id="r"/><path fill="#333" d="M114-163C36-179 61-72 57 0H25l-1-190h30c1 12-1 29 2 39 6-27 23-49 58-41v29" id="s"/><g id="b"><use transform="matrix(0.06172839506172839,0,0,0.06172839506172839,0,0)" xlink:href="#n"/><use transform="matrix(0.06172839506172839,0,0,0.06172839506172839,14.814814814814813,0)" xlink:href="#l"/><use transform="matrix(0.06172839506172839,0,0,0.06172839506172839,27.160493827160494,0)" xlink:href="#o"/><use transform="matrix(0.06172839506172839,0,0,0.06172839506172839,32.03703703703704,0)" xlink:href="#l"/><use transform="matrix(0.06172839506172839,0,0,0.06172839506172839,44.382716049382715,0)" xlink:href="#p"/><use transform="matrix(0.06172839506172839,0,0,0.06172839506172839,56.72839506172839,0)" xlink:href="#q"/><use transform="matrix(0.06172839506172839,0,0,0.06172839506172839,67.8395061728395,0)" xlink:href="#r"/><use transform="matrix(0.06172839506172839,0,0,0.06172839506172839,80.18518518518519,0)" xlink:href="#s"/></g><path fill="#333" d="M205 0l-28-72H64L36 0H1l101-248h38L239 0h-34zm-38-99l-47-123c-12 45-31 82-46 123h93" id="t"/><path fill="#333" d="M210-169c-67 3-38 105-44 169h-31v-121c0-29-5-50-35-48C34-165 62-65 56 0H25l-1-190h30c1 10-1 24 2 32 10-44 99-50 107 0 11-21 27-35 58-36 85-2 47 119 55 194h-31v-121c0-29-5-49-35-48" id="u"/><path fill="#333" d="M9 0v-24l116-142H16v-24h144v24L44-24h123V0H9" id="v"/><g id="c"><use transform="matrix(0.06172839506172839,0,0,0.06172839506172839,0,0)" xlink:href="#t"/><use transform="matrix(0.06172839506172839,0,0,0.06172839506172839,14.814814814814813,0)" xlink:href="#u"/><use transform="matrix(0.06172839506172839,0,0,0.06172839506172839,33.2716049382716,0)" xlink:href="#l"/><use transform="matrix(0.06172839506172839,0,0,0.06172839506172839,45.61728395061728,0)" xlink:href="#v"/><use transform="matrix(0.06172839506172839,0,0,0.06172839506172839,56.72839506172839,0)" xlink:href="#k"/><use transform="matrix(0.06172839506172839,0,0,0.06172839506172839,69.07407407407408,0)" xlink:href="#p"/></g><path fill="#333" d="M30 0v-248h187v28H63v79h144v27H63v87h162V0H30" id="w"/><path fill="#333" d="M212-179c-10-28-35-45-73-45-59 0-87 40-87 99 0 60 29 101 89 101 43 0 62-24 78-52l27 14C228-24 195 4 139 4 59 4 22-46 18-125c-6-104 99-153 187-111 19 9 31 26 39 46" id="x"/><path fill="#333" d="M101-251c82-7 93 87 43 132L82-64C71-53 59-42 53-27h129V0H18c2-99 128-94 128-182 0-28-16-43-45-43s-46 15-49 41l-32-3c6-41 34-60 81-64" id="y"/><g id="d"><use transform="matrix(0.06172839506172839,0,0,0.06172839506172839,0,0)" xlink:href="#w"/><use transform="matrix(0.06172839506172839,0,0,0.06172839506172839,14.814814814814813,0)" xlink:href="#x"/><use transform="matrix(0.06172839506172839,0,0,0.06172839506172839,30.80246913580247,0)" xlink:href="#y"/></g><path fill="#333" d="M233-177c-1 41-23 64-60 70L243 0h-38l-65-103H63V0H30v-248c88 3 205-21 203 71zM63-129c60-2 137 13 137-47 0-61-80-42-137-45v92" id="z"/><path fill="#333" d="M30-248c118-7 216 8 213 122C240-48 200 0 122 0H30v-248zM63-27c89 8 146-16 146-99s-60-101-146-95v194" id="A"/><path fill="#333" d="M185-189c-5-48-123-54-124 2 14 75 158 14 163 119 3 78-121 87-175 55-17-10-28-26-33-46l33-7c5 56 141 63 141-1 0-78-155-14-162-118-5-82 145-84 179-34 5 7 8 16 11 25" id="B"/><g id="e"><use transform="matrix(0.06172839506172839,0,0,0.06172839506172839,0,0)" xlink:href="#z"/><use transform="matrix(0.06172839506172839,0,0,0.06172839506172839,15.987654320987653,0)" xlink:href="#A"/><use transform="matrix(0.06172839506172839,0,0,0.06172839506172839,31.975308641975307,0)" xlink:href="#B"/></g><path fill="#333" d="M24-231v-30h32v30H24zM24 0v-190h32V0H24" id="C"/><path fill="#333" d="M135-143c-3-34-86-38-87 0 15 53 115 12 119 90S17 21 10-45l28-5c4 36 97 45 98 0-10-56-113-15-118-90-4-57 82-63 122-42 12 7 21 19 24 35" id="D"/><g id="f"><use transform="matrix(0.06172839506172839,0,0,0.06172839506172839,0,0)" xlink:href="#z"/><use transform="matrix(0.06172839506172839,0,0,0.06172839506172839,15.987654320987653,0)" xlink:href="#r"/><use transform="matrix(0.06172839506172839,0,0,0.06172839506172839,28.333333333333332,0)" xlink:href="#m"/><use transform="matrix(0.06172839506172839,0,0,0.06172839506172839,40.67901234567901,0)" xlink:href="#C"/><use transform="matrix(0.06172839506172839,0,0,0.06172839506172839,45.55555555555556,0)" xlink:href="#D"/></g><path fill="#248814" d="M137 0h-34L2-248h35l83 218 83-218h36" id="E"/><path fill="#248814" d="M24-231v-30h32v30H24zM24 0v-190h32V0H24" id="F"/><path fill="#248814" d="M114-163C36-179 61-72 57 0H25l-1-190h30c1 12-1 29 2 39 6-27 23-49 58-41v29" id="G"/><path fill="#248814" d="M59-47c-2 24 18 29 38 22v24C64 9 27 4 27-40v-127H5v-23h24l9-43h21v43h35v23H59v120" id="H"/><path fill="#248814" d="M84 4C-5 8 30-112 23-190h32v120c0 31 7 50 39 49 72-2 45-101 50-169h31l1 190h-30c-1-10 1-25-2-33-11 22-28 36-60 37" id="I"/><path fill="#248814" d="M141-36C126-15 110 5 73 4 37 3 15-17 15-53c-1-64 63-63 125-63 3-35-9-54-41-54-24 1-41 7-42 31l-33-3c5-37 33-52 76-52 45 0 72 20 72 64v82c-1 20 7 32 28 27v20c-31 9-61-2-59-35zM48-53c0 20 12 33 32 33 41-3 63-29 60-74-43 2-92-5-92 41" id="J"/><path fill="#248814" d="M24 0v-261h32V0H24" id="K"/><g id="g"><use transform="matrix(0.05,0,0,0.05,0,0)" xlink:href="#E"/><use transform="matrix(0.05,0,0,0.05,11.65,0)" xlink:href="#F"/><use transform="matrix(0.05,0,0,0.05,15.600000000000001,0)" xlink:href="#G"/><use transform="matrix(0.05,0,0,0.05,21.55,0)" xlink:href="#H"/><use transform="matrix(0.05,0,0,0.05,26.55,0)" xlink:href="#I"/><use transform="matrix(0.05,0,0,0.05,36.55,0)" xlink:href="#J"/><use transform="matrix(0.05,0,0,0.05,46.55,0)" xlink:href="#K"/></g><path fill="#248814" d="M30-248c87 1 191-15 191 75 0 78-77 80-158 76V0H30v-248zm33 125c57 0 124 11 124-50 0-59-68-47-124-48v98" id="L"/><path fill="#248814" d="M108 0H70L1-190h34L89-25l56-165h34" id="M"/><path fill="#248814" d="M100-194c63 0 86 42 84 106H49c0 40 14 67 53 68 26 1 43-12 49-29l28 8c-11 28-37 45-77 45C44 4 14-33 15-96c1-61 26-98 85-98zm52 81c6-60-76-77-97-28-3 7-6 17-6 28h103" id="N"/><g id="h"><use transform="matrix(0.05,0,0,0.05,0,0)" xlink:href="#L"/><use transform="matrix(0.05,0,0,0.05,12,0)" xlink:href="#G"/><use transform="matrix(0.05,0,0,0.05,17.95,0)" xlink:href="#F"/><use transform="matrix(0.05,0,0,0.05,21.9,0)" xlink:href="#M"/><use transform="matrix(0.05,0,0,0.05,30.899999999999995,0)" xlink:href="#J"/><use transform="matrix(0.05,0,0,0.05,40.9,0)" xlink:href="#H"/><use transform="matrix(0.05,0,0,0.05,45.9,0)" xlink:href="#N"/></g><path fill="#248814" d="M212-179c-10-28-35-45-73-45-59 0-87 40-87 99 0 60 29 101 89 101 43 0 62-24 78-52l27 14C228-24 195 4 139 4 59 4 22-46 18-125c-6-104 99-153 187-111 19 9 31 26 39 46" id="O"/><path fill="#248814" d="M100-194c62-1 85 37 85 99 1 63-27 99-86 99S16-35 15-95c0-66 28-99 85-99zM99-20c44 1 53-31 53-75 0-43-8-75-51-75s-53 32-53 75 10 74 51 75" id="P"/><path fill="#248814" d="M85-194c31 0 48 13 60 33l-1-100h32l1 261h-30c-2-10 0-23-3-31C134-8 116 4 85 4 32 4 16-35 15-94c0-66 23-100 70-100zm9 24c-40 0-46 34-46 75 0 40 6 74 45 74 42 0 51-32 51-76 0-42-9-74-50-73" id="Q"/><g id="i"><use transform="matrix(0.05,0,0,0.05,0,0)" xlink:href="#O"/><use transform="matrix(0.05,0,0,0.05,12.950000000000001,0)" xlink:href="#K"/><use transform="matrix(0.05,0,0,0.05,16.900000000000002,0)" xlink:href="#P"/><use transform="matrix(0.05,0,0,0.05,26.900000000000002,0)" xlink:href="#I"/><use transform="matrix(0.05,0,0,0.05,36.900000000000006,0)" xlink:href="#Q"/></g></defs></g></svg>