<svg xmlns="http://www.w3.org/2000/svg" xmlns:xlink="http://www.w3.org/1999/xlink" xmlns:lucid="lucid" width="1027.83" height="584.64"><g transform="translate(-319.5232763927429 -160)" lucid:page-tab-id="0TL15RIpVrNO"><path d="M1039.5 282.35h-58.96" stroke="#333" fill="none"/><path d="M1049.5 272.35v20M1059.5 282.35h-20M1039.5 272.35v20M941.27 272.35l20 10-20 10M941.27 282.35h20M981.27 282.35c0 5.52-4.48 10-10 10-5.53 0-10-4.48-10-10 0-5.53 4.47-10 10-10 5.52 0 10 4.47 10 10" stroke="#333" fill="#fff"/><path d="M718.32 335.17v7.5c0 6.62-5.37 12-12 12h-59.44" stroke="#333" fill="none"/><path d="M708.32 325.17h20M718.32 315.17v20M708.32 335.17h20M607.6 344.67l20 10-20 10M607.6 354.67h20M647.6 354.67c0 5.52-4.48 10-10 10s-10-4.48-10-10c0-5.53 4.48-10 10-10s10 4.47 10 10" stroke="#333" fill="#fff"/><path d="M806.87 335.17V360" stroke="#333" fill="none"/><path d="M796.87 325.17h20M806.87 315.17v20M796.87 335.17h20M796.87 399.28l10-20 10 20M806.87 399.28v-20M816.87 369.28c0 5.52-4.48 10-10 10-5.53 0-10-4.48-10-10 0-5.53 4.47-10 10-10 5.52 0 10 4.47 10 10" stroke="#333" fill="#fff"/><path d="M718.32 229.53v-2.86c0-6.63-5.37-12-12-12h-59.44" stroke="#333" fill="none"/><path d="M728.32 239.53h-20M718.32 249.53v-20M728.32 229.53h-20M607.6 204.67l20 10-20 10M607.6 214.67h20M647.6 214.67c0 5.52-4.48 10-10 10s-10-4.48-10-10c0-5.53 4.48-10 10-10s10 4.47 10 10" stroke="#333" fill="#fff"/><path d="M673.2 250.03h267.34v64.64H673.2z" stroke="#333" fill="#ffb781"/><use xlink:href="#a" transform="matrix(1,0,0,1,677.9888863828569,254.82807544221396) translate(103.37037037037037 31.422222222222224)"/><path d="M740.8 485.14v5.18c0 6.63-5.37 12-12 12h-83.12c-6.63 0-12 5.37-12 12v5.18" stroke="#333" fill="none"/><path d="M730.8 475.14h20M740.8 465.14v20M730.8 485.14h20M643.68 529.5h-20M633.68 539.5v-20M643.68 519.5h-20" stroke="#333" fill="#fff"/><path d="M879.5 485.14v5.18c0 6.63 5.37 12 12 12h70.18c6.62 0 12 5.37 12 12v5.18" stroke="#333" fill="none"/><path d="M869.5 475.14h20M879.5 465.14v20M869.5 485.14h20M983.68 529.5h-20M973.68 539.5v-20M983.68 519.5h-20" stroke="#333" fill="#fff"/><path d="M973.68 625.14v14.36" stroke="#333" fill="none"/><path d="M963.68 615.14h20M973.68 605.14v20M963.68 625.14h20M983.68 649.5h-20M973.68 659.5v-20M983.68 639.5h-20" stroke="#333" fill="#fff"/><path d="M1060 250.03h267.35v64.64H1060z" stroke="#333" fill="#ffb781"/><use xlink:href="#b" transform="matrix(1,0,0,1,1064.8,254.82807544221396) translate(110.28395061728396 31.422222222222224)"/><path d="M339.52 180h267.36v64.64H339.52z" stroke="#333" fill="#ffb781"/><use xlink:href="#c" transform="matrix(1,0,0,1,344.3232763927429,184.8) translate(79.0246913580247 31.422222222222224)"/><use xlink:href="#d" transform="matrix(1,0,0,1,344.3232763927429,184.8) translate(114.58024691358025 31.422222222222224)"/><path d="M339.52 320h267.36v64.64H339.52z" stroke="#333" fill="#ffb781"/><use xlink:href="#e" transform="matrix(1,0,0,1,344.3232763927429,324.8) translate(64.38271604938271 31.422222222222224)"/><use xlink:href="#f" transform="matrix(1,0,0,1,344.3232763927429,324.8) translate(135.44444444444446 31.422222222222224)"/><path d="M673.2 400h267.34v64.64H673.2z" stroke="#333" fill="#ffb781"/><use xlink:href="#g" transform="matrix(1,0,0,1,677.9888863828569,404.8) translate(106.28395061728396 31.422222222222224)"/><path d="M840 660h267.35v64.64H840z" stroke="#333" fill="#ffb781"/><use xlink:href="#e" transform="matrix(1,0,0,1,844.8,664.8) translate(53.49382716049382 31.422222222222224)"/><use xlink:href="#h" transform="matrix(1,0,0,1,844.8,664.8) translate(124.55555555555557 31.422222222222224)"/><path d="M840 540h267.35v64.64H840z" stroke="#333" fill="#ffb781"/><use xlink:href="#i" transform="matrix(1,0,0,1,844.8,544.8) translate(54.4567901234568 31.422222222222224)"/><use xlink:href="#j" transform="matrix(1,0,0,1,844.8,544.8) translate(137.41975308641975 31.422222222222224)"/><path d="M500 540h267.35v64.64H500z" stroke="#333" fill="#ffb781"/><g><use xlink:href="#k" transform="matrix(1,0,0,1,504.8,544.8) translate(61.37037037037037 31.422222222222224)"/><use xlink:href="#j" transform="matrix(1,0,0,1,504.8,544.8) translate(130.50617283950618 31.422222222222224)"/></g><defs><path fill="#333" d="M219-77C219 17 104-2 11 0l48-248c73 2 169-15 169 57 0 38-24 54-60 60 29 5 51 21 51 54zm-26-111c0-44-62-31-105-33l-16 79c55 0 121 9 121-46zm-7 110c-1-49-69-36-119-38L50-27c61-1 137 12 136-51" id="l"/><path fill="#333" d="M66-151c12-25 30-51 66-40l-6 26C45-176 58-65 38 0H6l36-190h30" id="m"/><path fill="#333" d="M50-231l6-30h32l-6 30H50zM6 0l37-190h31L37 0H6" id="n"/><path fill="#333" d="M133-28C103 26-5 8 13-77c13-62 24-115 90-117 29-1 46 15 56 35l19-102h32L160 0h-30zM45-64c-2 27 10 43 35 43 54-1 69-50 69-103 0-29-15-46-42-46-53-1-58 58-62 106" id="o"/><path fill="#333" d="M103-194c29 0 47 14 56 36 2-11 5-23 8-32h30L160-5C157 61 82 97 21 62 9 55 4 45 1 30l28-7c7 42 83 31 92-3 4-16 9-38 13-55-13 20-29 36-62 36-40 0-60-25-60-64 0-71 23-131 91-131zm4 24c-53 0-58 54-61 104-2 27 10 44 36 44 49 0 65-50 67-102 1-29-15-46-42-46" id="p"/><path fill="#333" d="M111-194c62-3 86 47 72 106H45c-7 38 6 69 45 68 27-1 43-14 53-32l24 11C152-15 129 4 87 4 38 3 12-23 12-71c0-70 32-119 99-123zm44 81c14-66-71-72-95-28-4 8-8 17-11 28h106" id="q"/><g id="a"><use transform="matrix(0.04938271604938272,0,0,0.04938271604938272,0,0)" xlink:href="#l"/><use transform="matrix(0.04938271604938272,0,0,0.04938271604938272,11.851851851851853,0)" xlink:href="#m"/><use transform="matrix(0.04938271604938272,0,0,0.04938271604938272,17.728395061728396,0)" xlink:href="#n"/><use transform="matrix(0.04938271604938272,0,0,0.04938271604938272,21.62962962962963,0)" xlink:href="#o"/><use transform="matrix(0.04938271604938272,0,0,0.04938271604938272,31.506172839506174,0)" xlink:href="#p"/><use transform="matrix(0.04938271604938272,0,0,0.04938271604938272,41.38271604938272,0)" xlink:href="#q"/></g><path fill="#333" d="M62-99C39-31 123 0 170-40s38-139 58-208h34C234-144 253 4 115 4 49 4 18-43 31-112l26-136h34" id="r"/><path fill="#333" d="M55-144c13 50 104 24 104 88C159 21 15 23 1-39l26-10c6 40 102 42 102-4-13-50-104-23-104-87 0-71 143-71 148-8l-29 4c-5-35-85-37-89 0" id="s"/><g id="b"><use transform="matrix(0.04938271604938272,0,0,0.04938271604938272,0,0)" xlink:href="#r"/><use transform="matrix(0.04938271604938272,0,0,0.04938271604938272,12.790123456790125,0)" xlink:href="#s"/><use transform="matrix(0.04938271604938272,0,0,0.04938271604938272,21.679012345679013,0)" xlink:href="#q"/><use transform="matrix(0.04938271604938272,0,0,0.04938271604938272,31.555555555555557,0)" xlink:href="#m"/></g><path fill="#333" d="M11 0l48-248h184l-5 28H87l-15 79h140l-5 27H67L50-27h158l-5 27H11" id="t"/><path fill="#333" d="M67-158c22-48 132-52 116 29L158 0h-32l25-140c3-38-53-32-70-12C52-117 51-52 38 0H6l36-190h30" id="u"/><path fill="#333" d="M89 0H52L20-190h33L74-25l89-165h34" id="v"/><g id="c"><use transform="matrix(0.04938271604938272,0,0,0.04938271604938272,0,0)" xlink:href="#t"/><use transform="matrix(0.04938271604938272,0,0,0.04938271604938272,11.851851851851853,0)" xlink:href="#u"/><use transform="matrix(0.04938271604938272,0,0,0.04938271604938272,21.7283950617284,0)" xlink:href="#v"/></g><path fill="#333" d="M119 0H84L31-248h34l41 218 126-218h36" id="w"/><path fill="#333" d="M165-48c-4 18 1 34 23 27l-3 20c-29 8-62 0-52-35h-2C116-14 99 4 63 4 30 4 8-16 8-49c0-68 71-67 138-67 10-26 0-56-31-54-26 1-42 9-47 31l-32-5c8-67 160-71 144 15-5 28-9 54-15 81zM42-50c3 52 80 24 89-6 7-12 7-24 11-38-47 1-103-4-100 44" id="x"/><path fill="#333" d="M68-162c25-46 127-43 121 31C183-60 169 1 98 4 69 5 53-11 43-31L36 0H5l52-261h31zm88 36c2-27-9-43-34-43-55 0-70 51-70 103 0 29 15 45 43 46 52 0 58-58 61-106" id="y"/><path fill="#333" d="M6 0l50-261h32L37 0H6" id="z"/><g id="d"><use transform="matrix(0.04938271604938272,0,0,0.04938271604938272,0,0)" xlink:href="#w"/><use transform="matrix(0.04938271604938272,0,0,0.04938271604938272,11.209876543209878,0)" xlink:href="#x"/><use transform="matrix(0.04938271604938272,0,0,0.04938271604938272,21.086419753086425,0)" xlink:href="#m"/><use transform="matrix(0.04938271604938272,0,0,0.04938271604938272,26.962962962962973,0)" xlink:href="#n"/><use transform="matrix(0.04938271604938272,0,0,0.04938271604938272,30.864197530864207,0)" xlink:href="#x"/><use transform="matrix(0.04938271604938272,0,0,0.04938271604938272,40.74074074074075,0)" xlink:href="#y"/><use transform="matrix(0.04938271604938272,0,0,0.04938271604938272,50.617283950617285,0)" xlink:href="#z"/><use transform="matrix(0.04938271604938272,0,0,0.04938271604938272,54.518518518518526,0)" xlink:href="#q"/></g><path fill="#333" d="M249-183c0 48-29 72-75 77L221 0h-36l-43-103H65L45 0H11l48-248c83 2 190-17 190 65zm-34 3c0-55-74-39-127-41l-18 92c63-1 145 13 145-51" id="A"/><path fill="#333" d="M133-28C103 26-5 8 13-77c13-62 24-115 90-117 29-1 46 15 56 35 2-12 6-24 8-34h31L144 75h-31zM45-64c-2 27 10 43 35 43 54-1 69-50 69-103 0-29-15-46-42-46-53-1-58 58-62 106" id="B"/><path fill="#333" d="M67 3c-93-2-31-127-26-193h32L48-50c-3 39 53 32 70 12 30-34 30-101 43-152h32L157 0h-30c1-10 6-24 4-33-14 20-29 37-64 36" id="C"/><path fill="#333" d="M51-54c-9 22 5 41 31 30L79-1C43 14 10-4 19-52l22-115H19l5-23h22l19-43h21l-9 43h35l-4 23H73" id="D"/><g id="e"><use transform="matrix(0.04938271604938272,0,0,0.04938271604938272,0,0)" xlink:href="#A"/><use transform="matrix(0.04938271604938272,0,0,0.04938271604938272,12.790123456790125,0)" xlink:href="#q"/><use transform="matrix(0.04938271604938272,0,0,0.04938271604938272,22.66666666666667,0)" xlink:href="#B"/><use transform="matrix(0.04938271604938272,0,0,0.04938271604938272,32.543209876543216,0)" xlink:href="#C"/><use transform="matrix(0.04938271604938272,0,0,0.04938271604938272,42.41975308641976,0)" xlink:href="#q"/><use transform="matrix(0.04938271604938272,0,0,0.04938271604938272,52.2962962962963,0)" xlink:href="#s"/><use transform="matrix(0.04938271604938272,0,0,0.04938271604938272,61.18518518518519,0)" xlink:href="#D"/></g><path fill="#333" d="M179 0l23-115H67L45 0H11l48-248h34L72-143h135l21-105h32L212 0h-33" id="E"/><g id="f"><use transform="matrix(0.04938271604938272,0,0,0.04938271604938272,0,0)" xlink:href="#E"/><use transform="matrix(0.04938271604938272,0,0,0.04938271604938272,12.790123456790125,0)" xlink:href="#q"/><use transform="matrix(0.04938271604938272,0,0,0.04938271604938272,22.66666666666667,0)" xlink:href="#x"/><use transform="matrix(0.04938271604938272,0,0,0.04938271604938272,32.543209876543216,0)" xlink:href="#o"/><use transform="matrix(0.04938271604938272,0,0,0.04938271604938272,42.41975308641976,0)" xlink:href="#q"/><use transform="matrix(0.04938271604938272,0,0,0.04938271604938272,52.2962962962963,0)" xlink:href="#m"/></g><g id="g"><use transform="matrix(0.04938271604938272,0,0,0.04938271604938272,0,0)" xlink:href="#t"/><use transform="matrix(0.04938271604938272,0,0,0.04938271604938272,11.851851851851853,0)" xlink:href="#v"/><use transform="matrix(0.04938271604938272,0,0,0.04938271604938272,20.74074074074074,0)" xlink:href="#q"/><use transform="matrix(0.04938271604938272,0,0,0.04938271604938272,30.617283950617285,0)" xlink:href="#u"/><use transform="matrix(0.04938271604938272,0,0,0.04938271604938272,40.49382716049383,0)" xlink:href="#D"/></g><path fill="#333" d="M67-162c32-53 139-36 121 50C175-51 163 2 97 4 68 4 52-11 42-31 38 6 28 39 22 75H-9l50-265h29c-1 10 0 20-3 28zm89 36c0-26-10-43-35-43-54 0-67 50-69 103-1 29 14 45 42 46 53 0 62-58 62-106" id="F"/><path fill="#333" d="M30-147c31-64 166-65 159 27C183-49 158 1 86 4 9 8 1-88 30-147zM88-20c53 0 68-48 68-100 0-31-11-51-44-50-52 1-68 46-68 97 0 32 13 53 44 53" id="G"/><g id="h"><use transform="matrix(0.04938271604938272,0,0,0.04938271604938272,0,0)" xlink:href="#A"/><use transform="matrix(0.04938271604938272,0,0,0.04938271604938272,12.790123456790125,0)" xlink:href="#q"/><use transform="matrix(0.04938271604938272,0,0,0.04938271604938272,22.66666666666667,0)" xlink:href="#s"/><use transform="matrix(0.04938271604938272,0,0,0.04938271604938272,31.555555555555557,0)" xlink:href="#F"/><use transform="matrix(0.04938271604938272,0,0,0.04938271604938272,41.4320987654321,0)" xlink:href="#G"/><use transform="matrix(0.04938271604938272,0,0,0.04938271604938272,51.308641975308646,0)" xlink:href="#u"/><use transform="matrix(0.04938271604938272,0,0,0.04938271604938272,61.18518518518519,0)" xlink:href="#s"/><use transform="matrix(0.04938271604938272,0,0,0.04938271604938272,70.07407407407408,0)" xlink:href="#q"/></g><path fill="#333" d="M20-101c0-91 52-143 145-150 126-9 127 168 53 223-23 17-55 32-93 32C57 4 20-33 20-101zm216-33c5-57-18-91-73-90-77 1-110 51-110 125 0 49 23 75 73 75 72-1 104-45 110-110" id="H"/><g id="i"><use transform="matrix(0.04938271604938272,0,0,0.04938271604938272,0,0)" xlink:href="#H"/><use transform="matrix(0.04938271604938272,0,0,0.04938271604938272,13.827160493827162,0)" xlink:href="#C"/><use transform="matrix(0.04938271604938272,0,0,0.04938271604938272,23.703703703703706,0)" xlink:href="#D"/><use transform="matrix(0.04938271604938272,0,0,0.04938271604938272,28.641975308641978,0)" xlink:href="#y"/><use transform="matrix(0.04938271604938272,0,0,0.04938271604938272,38.51851851851852,0)" xlink:href="#G"/><use transform="matrix(0.04938271604938272,0,0,0.04938271604938272,48.39506172839506,0)" xlink:href="#C"/><use transform="matrix(0.04938271604938272,0,0,0.04938271604938272,58.27160493827161,0)" xlink:href="#u"/><use transform="matrix(0.04938271604938272,0,0,0.04938271604938272,68.14814814814815,0)" xlink:href="#o"/></g><g id="j"><use transform="matrix(0.04938271604938272,0,0,0.04938271604938272,0,0)" xlink:href="#A"/><use transform="matrix(0.04938271604938272,0,0,0.04938271604938272,12.790123456790125,0)" xlink:href="#q"/><use transform="matrix(0.04938271604938272,0,0,0.04938271604938272,22.66666666666667,0)" xlink:href="#B"/><use transform="matrix(0.04938271604938272,0,0,0.04938271604938272,32.543209876543216,0)" xlink:href="#C"/><use transform="matrix(0.04938271604938272,0,0,0.04938271604938272,42.41975308641976,0)" xlink:href="#q"/><use transform="matrix(0.04938271604938272,0,0,0.04938271604938272,52.2962962962963,0)" xlink:href="#s"/><use transform="matrix(0.04938271604938272,0,0,0.04938271604938272,61.18518518518519,0)" xlink:href="#D"/></g><path fill="#333" d="M14 0l48-248h34L48 0H14" id="I"/><g id="k"><use transform="matrix(0.04938271604938272,0,0,0.04938271604938272,0,0)" xlink:href="#I"/><use transform="matrix(0.04938271604938272,0,0,0.04938271604938272,4.938271604938272,0)" xlink:href="#u"/><use transform="matrix(0.04938271604938272,0,0,0.04938271604938272,14.814814814814817,0)" xlink:href="#y"/><use transform="matrix(0.04938271604938272,0,0,0.04938271604938272,24.69135802469136,0)" xlink:href="#G"/><use transform="matrix(0.04938271604938272,0,0,0.04938271604938272,34.567901234567906,0)" xlink:href="#C"/><use transform="matrix(0.04938271604938272,0,0,0.04938271604938272,44.44444444444445,0)" xlink:href="#u"/><use transform="matrix(0.04938271604938272,0,0,0.04938271604938272,54.320987654320994,0)" xlink:href="#o"/></g></defs></g></svg>