<svg xmlns="http://www.w3.org/2000/svg" xmlns:xlink="http://www.w3.org/1999/xlink" xmlns:lucid="lucid" width="1755" height="1100"><g transform="translate(396 -180)" lucid:page-tab-id="0_0"><path d="M-243.58 906.2h-104.55c-4.2 0-7.67-3.43-7.67-7.6V830.1c0-4.2 3.48-7.62 7.67-7.62h104.55c4.2 0 7.68 3.43 7.68 7.62v68.38c0 4.27-3.36 7.7-7.56 7.7h-.12zM-348 827.6c-1.45 0-2.64 1.1-2.64 2.52v68.38c0 1.43 1.2 2.6 2.63 2.6h104.54c1.44 0 2.52-1.17 2.52-2.6v-68.38c0-1.43-1.08-2.5-2.52-2.5zM-244.8 939.5h-102.07c-4.92-.03-8.88-3.98-8.88-8.88V919.6c0-4.9 3.96-8.9 8.88-8.94h102.07c4.92 0 9 4 9 8.94v11.02c0 4.93-4.08 8.88-9 8.88zm-102.07-23.77c-2.04.03-3.72 1.76-3.72 3.87v11.02c0 2.1 1.7 3.77 3.73 3.8h102.07c2.16 0 3.84-1.73 3.84-3.86V919.6c0-2.14-1.68-3.87-3.84-3.87z" stroke="#fff" stroke-opacity="0" fill="#232f3e"/><path d="M-247.94 896.67h-95.72c-1.4 0-2.52-1.17-2.52-2.53V834.5c0-1.37 1.1-2.54 2.52-2.54h95.72c1.4 0 2.52 1.17 2.52 2.53v59.64c0 1.36-1.1 2.53-2.52 2.53zm-93.1-5.1h90.48v-54.5h-90.48zM-276.68 920.2h28.73c1.7 0 2.53.84 2.53 2.54v4.78c0 1.7-.84 2.54-2.53 2.54h-28.73c-1.7 0-2.54-.85-2.54-2.54v-4.78c0-1.7.85-2.54 2.54-2.54z" stroke="#fff" stroke-opacity="0" fill="#232f3e"/><use xlink:href="#a" transform="matrix(1,0,0,1,-385.79999999999995,948.5000000000003) translate(61.69753086419753 17.77777777777778)"/><path d="M284.2 629.75h80v80h-80v-80z" stroke="#fff" stroke-opacity="0" stroke-width="2" fill="#d86613"/><path d="M348.73 696.42H335.6c-.44 0-.78-.22-.95-.6l-18.6-38.87h-7.86c-.6 0-1.08-.48-1.08-1.07v-11.73c0-.6.47-1.07 1.07-1.07h16.42c.43 0 .77.22.94.6l18.52 38.87h4.65c.6 0 1.07.48 1.07 1.07v11.73c0 .6-.47 1.07-1.07 1.07zm-12.46-2.14h11.4v-9.6h-4.27c-.43 0-.77-.2-.94-.58l-18.52-38.88h-14.68v9.6h7.47c.42 0 .76.2.98.58z" stroke="#fff" stroke-opacity="0" stroke-width="2" fill="#fff"/><path d="M313.5 696.42h-13.85c-.38 0-.7-.2-.92-.5-.2-.35-.2-.74-.05-1.06l14.52-30.3c.16-.4.54-.62.94-.62.43 0 .78.22.97.58l6.95 14.3c.16.28.16.6 0 .93l-7.58 15.98c-.14.43-.52.7-.97.7zm-12.15-2.15h11.5l7.05-14.9-5.74-11.93z" stroke="#fff" stroke-opacity="0" stroke-width="2" fill="#fff"/><path d="M284.2 635.75c0-3.3 2.7-6 6-6h387.6c3.3 0 6 2.7 6 6v487.5c0 3.3-2.7 6-6 6H290.2c-3.3 0-6-2.7-6-6z" stroke="#dd3522" stroke-width="3" fill="#fff" fill-opacity="0"/><use xlink:href="#b" transform="matrix(1,0,0,1,284.20000000000005,649.7500000000003) translate(134.9 14.4)"/><use xlink:href="#c" transform="matrix(1,0,0,1,284.20000000000005,649.7500000000003) translate(204.85000000000002 14.4)"/><path d="M-75.8 819.5h120v120h-120v-120z" stroke="#fff" stroke-opacity="0" fill="#693cc5"/><path d="M-1.98 916.57l-2.85-1.5c1.6-3.02 2.7-5.73 3.64-9.04l3.1.9c-1.03 3.54-2.17 6.4-3.88 9.64zM1 887.27c-.57-9.4-3.23-17.23-8.43-25.06l2.66-1.72c5.55 8.28 8.37 16.64 8.97 26.58zm-21.1-38.6c-2.45-1.82-4.67-3.18-7.4-4.53l1.46-2.86c2.92 1.43 5.26 2.86 7.86 4.8zM-7 891.34c-5.3-5.27-10.82-8.73-17.87-11.2l1-3.04c7.5 2.63 13.38 6.3 19.03 11.92zM6.2 910.44c-.6-1.6-1.28-3.07-2.02-4.56l2.87-1.42c.83 1.65 1.46 3.08 2.13 4.8z" stroke="#fff" stroke-opacity="0" fill="#fff"/><path d="M-2.9 917.34l-1-3.02c4.02-1.37 7.24-3.1 10.6-5.72l1.96 2.53c-3.66 2.85-7.15 4.73-11.55 6.2zM-53.76 878.7l-.73-3.1c3.75-.92 7-1.35 10.85-1.43l.07 3.2c-3.6.08-6.66.47-10.18 1.33zM-27.5 868.52l-2.7-1.75c2.47-4 5.06-7.1 8.6-10.23l2.1 2.42c-3.3 2.92-5.7 5.8-8 9.56zM-3.72 849.55l-1.1-3c2.55-.96 4.76-1.6 7.42-2.12l.6 3.2c-2.5.47-4.55 1.04-6.92 1.92zM-35.4 913.9c-2.75-6.38-4-12.25-4.1-19.2.04-2.67.34-4.95.98-7.54.1-.57.24-1.14.35-1.74l3.2.63c-.1.6-.24 1.16-.35 1.76-.6 2.38-.87 4.46-.92 6.9.07 6.53 1.23 12.05 3.8 18.06z" stroke="#fff" stroke-opacity="0" fill="#fff"/><path d="M-15.8 919.5c-22.08 0-40-17.94-40-39.97 0-.88 0-1.6.08-2.5 1.04-17.05 12.08-31 28.48-35.87 10.8-3.2 21.2-2.1 30.96 3.44 19.28 10.82 26.16 35.17 15.36 54.47-2.72 4.9-5.92 8.65-10.4 12.1-7.36 5.6-15.2 8.33-24.48 8.33zm0-76.82c-3.76 0-6.96.48-10.48 1.6-15.12 4.57-25.28 17.3-26.24 33 0 .8-.08 1.53-.08 2.25 0 20.26 16.48 36.77 36.8 36.77 4.24 0 7.84-.56 11.84-2 4.08-1.37 7.28-3.05 10.64-5.7C16.04 901.4 21 891.3 21 879.54c0-20.35-16.48-36.85-36.8-36.85z" stroke="#fff" stroke-opacity="0" fill="#fff"/><path d="M-11.9 861c-3.92 0-7.1-3.2-7.1-7.1 0-3.9 3.18-7.1 7.1-7.1 3.9 0 7.08 3.2 7.08 7.1 0 3.93-3.17 7.1-7.08 7.1zm0-10.97c-2.15 0-3.9 1.74-3.9 3.88 0 2.17 1.75 3.9 3.9 3.9 2.13 0 3.87-1.73 3.87-3.9 0-2.13-1.74-3.87-3.88-3.87zM-33.74 883.3c-3.9 0-7.08-3.17-7.08-7.08 0-3.9 3.17-7.1 7.08-7.1 3.92 0 7.1 3.2 7.1 7.1-.02 3.9-3.18 7.07-7.1 7.1zm0-10.96c-2.14 0-3.88 1.74-3.88 3.88 0 2.14 1.74 3.88 3.88 3.88 2.14 0 3.9-1.74 3.9-3.88v-.03c0-2.16-1.76-3.9-3.9-3.9zM1.45 903.82c-3.92 0-7.1-3.16-7.1-7.07-.02-3.92 3.16-7.1 7.07-7.1 3.9-.02 7.1 3.16 7.1 7.07v.03c0 3.9-3.16 7.07-7.07 7.07zm0-10.96h-.02c-2.14 0-3.88 1.75-3.88 3.9 0 2.14 1.74 3.87 3.88 3.87 2.14 0 3.9-1.73 3.9-3.88 0-2.14-1.74-3.9-3.88-3.9z" stroke="#fff" stroke-opacity="0" fill="#fff"/><use xlink:href="#d" transform="matrix(1,0,0,1,-105.79999999999995,948.5000000000003) translate(49.29012345679012 17.77777777777778)"/><use xlink:href="#e" transform="matrix(1,0,0,1,-105.79999999999995,948.5000000000003) translate(35.18518518518518 44.44444444444444)"/><path d="M45.2 879.5h219" stroke="#5e5e5e" stroke-width="2" fill="none"/><path d="M45.23 880.5H44.2v-2h1.03z" fill="#5e5e5e"/><path d="M279.46 879.5l-14.26 4.64v-9.28z" stroke="#5e5e5e" stroke-width="2" fill="#5e5e5e"/><path d="M456.62 497.4h53.5v9.96h-53.5v-9.96zM456.62 516.48h53.5v9.84h-53.5v-9.84zM456.62 535.2h53.5v9.84h-53.5v-9.84z" stroke="#000" stroke-opacity="0" fill="#2a3282"/><path d="M517.4 459h-75.34c-8.8 0-15.95 7.2-15.95 15.96v88.08c0 8.76 7.17 15.96 15.96 15.96h83.55c8.9 0 16.07-7.2 16.07-15.96v-80.16L517.4 459zm8.2 110.4h-83.54c-3.35 0-6.13-2.64-6.13-6.36v-88.08c0-3.36 2.78-6.12 6.13-6.12h70.26v19.8h19.4v74.64c0 3.48-2.64 6.12-6.1 6.12z" stroke="#000" stroke-opacity="0" fill="#2a3282"/><use xlink:href="#f" transform="matrix(1,0,0,1,396.1091740497285,588.0000000000003) translate(36.025 14.4)"/><use xlink:href="#g" transform="matrix(1,0,0,1,396.1091740497285,588.0000000000003) translate(85.975 14.4)"/><path d="M45.2 879.5h123c3.3 0 6-2.7 6-6V525.36c0-3.3 2.7-6 6-6h227.4" stroke="#5e5e5e" stroke-width="2" fill="none"/><path d="M45.23 880.5H44.2v-2h1.03z" fill="#5e5e5e"/><path d="M422.87 519.36L408.6 524v-9.28z" stroke="#5e5e5e" stroke-width="2" fill="#5e5e5e"/><path d="M1001.6 226c0-3.3 2.7-6 6-6h308c3.32 0 6 2.7 6 6v728c0 3.3-2.68 6-6 6h-308c-3.3 0-6-2.7-6-6z" stroke="#248814" stroke-width="3" fill="#fff" fill-opacity="0"/><path d="M1001.6 220h56v56h-56v-56z" stroke="#fff" stroke-opacity="0" fill="#248814"/><path d="M1033.36 248.3h-1.18v-1.1c-.12-1.73-1.47-3.07-3.2-3.2-1.9-.13-3.54 1.3-3.67 3.2v1.07h-1.17c-.44 0-.8.36-.8.8v6.13c0 .44.36.8.8.8h9.23c.44 0 .8-.36.8-.8v-6.1c0-.44-.36-.8-.8-.8zm-6.4-1.06c.1-1.02 1-1.77 2-1.67.9.08 1.58.77 1.67 1.67v1.06h-3.72zm5.65 7.08h-7.67v-4.42h7.63z" stroke="#fff" stroke-opacity="0" fill="#fff"/><path d="M1043.87 245.74c-.08-2.44-1.58-4.47-3.87-5.3-1.58-.46-3.16-.13-4.4.9-.68-1.44-1.47-2.6-2.6-3.75-3.24-3.36-7.94-4.3-12.18-2.4-4.04 1.9-6.4 5.63-6.54 10.05v.7c-3.4.98-5.65 4.08-5.5 7.65v.63c.4 4.28 3.92 7.52 8.2 7.47H1043s7.4-.63 7.4-8.1c.04-3.9-2.66-7.2-6.53-7.86zm-.96 14.4H1017c-3.46.05-6.3-2.53-6.6-5.97v-.52c-.15-3.05 1.93-5.7 4.92-6.3.38-.12.63-.48.6-.9-.05-.4-.05-.73 0-1.14.07-3.78 2.1-6.94 5.52-8.6 1.25-.56 2.4-.8 3.83-.84 2.62.08 4.87 1.04 6.7 2.94 1.25 1.3 2.04 2.6 2.62 4.3.03.15.12.28.24.37.37.27.87.2 1.12-.17.84-1.18 2.25-1.67 3.62-1.3 1.8.72 2.87 2.4 2.83 4.32-.07.4.22.82.64.9 3.58.36 6.2 3.55 5.82 7.12-.3 3.13-2.7 5.52-5.82 5.85z" stroke="#fff" stroke-opacity="0" fill="#fff"/><use xlink:href="#h" transform="matrix(1,0,0,1,1072.6013114529862,240) translate(0 14.4)"/><use xlink:href="#i" transform="matrix(1,0,0,1,1072.6013114529862,240) translate(45 14.4)"/><use xlink:href="#j" transform="matrix(1,0,0,1,1072.6013114529862,240) translate(72 14.4)"/><path d="M1001.6 220h64.16v64.16h-64.16V220z" stroke="#fff" stroke-opacity="0" stroke-width="2" fill="#3f8624"/><path d="M1054.16 254.25c-.25-1.33-1.77-2.27-2.83-2.95-.33-.22-1.23-.56-1.32-.86 0-.2 0-.43.1-.64l.86-6.13c.24-1.8.5-3.6.74-5.44.2-1.63-.58-2.74-1.93-3.68-2.75-1.93-6.36-2.7-9.6-3.22-4.26-.68-8-.8-12.3-.38-3.9.26-7.12 1.03-10.73 2.57-1.8.86-4.22 2.18-3.9 4.5.82 6.94 1.85 13.88 2.8 20.82.4 3.17.85 6.34 1.26 9.5.17 1.33.9 2.36 2.13 2.87 2.63 1.43 5.9 1.86 8.9 2.1 4.14.4 7.66.27 11.76-.5 2.45-.43 7.05-1.2 7.46-4.28.5-3.82 1.02-7.63 1.5-11.44l.22-1.16c1.4.35 5.37 1.07 4.88-1.67zm-21.73-21.84c5.16 0 11.03.6 15.62 3.13.74.4 2.37 1.25 1.88 2.32-.5 1.02-2.05 1.54-3 1.92-1.38.52-2.65.86-4.13 1.16-6.4 1.3-12.05 1.4-18.53.4-2.9-.3-5.33-1.04-7.95-2.33-.62-.38-1.64-.98-1.36-1.84.2-.47.54-.8 1-1.07 2-1.3 3.84-2.07 6.18-2.5 3.52-.85 6.64-1.24 10.3-1.2zm13.44 36.07c-.16 1-1.8 1.5-2.58 1.76-1.73.6-3.25.94-5.05 1.16-3.98.5-7.42.5-11.44 0-2.5-.23-4.58-.78-6.83-1.9-.62-.26-1-.8-1.03-1.46-.86-6.8-1.8-13.57-2.75-20.34l-1-7.37c2.06 1.1 3.95 1.8 6.24 2.2 2.5.5 4.6.76 7.13.93 4.92.34 9.15.13 14.02-.77 2.58-.4 4.7-1.13 7-2.37l-1.8 13.4c-4.6-1.5-8.36-3-12.67-5.1-.2-.08-.36-.16-.53-.25-.24-.17-.16-.08-.3-.34-.2-.5-.23-.86-.68-1.28-.4-.3-.86-.43-1.36-.4-1.06.05-1.88 1-1.8 2.07.08 1.02 1.03 1.84 2.1 1.75.28-.04.52-.13.85-.25.34-.1.34-.1.67.08 4.38 2.15 8.2 3.74 12.83 5.28.66.2.66 0 .66.56l-.17 1.24-.54 4.07zm-13.2-20.26c0 .27-.32.23-.4.1-.13-.17.4-.4.4-.1zm16.85 6l.25-1.88c.86.52 2.3 1.25 2.7 2.2-.86.33-2.17-.1-2.95-.3z" stroke="#fff" stroke-opacity="0" stroke-width="2" fill="#fff"/><path d="M517.8 300h-75.6c-8.8 0-16.08 7.32-16.08 16.08v87.84c0 8.76 7.3 16.08 16.1 16.08h83.57c8.8 0 16.08-7.32 16.08-16.08v-80.16L517.8 300zm14.12 103.8c0 3.48-2.66 6.12-6.13 6.12h-83.6c-3.46 0-6.12-2.64-6.12-6.12v-88.08c0-3.48 2.66-6.12 6.13-6.12h70.5v19.56h19.22v74.64z" stroke="#000" stroke-opacity="0" fill="#2a3282"/><path d="M465.6 372l-15.3-8.76 15.3-9.6v-8.04l-21.77 14.88v5.4l21.76 14.16V372zM493.6 334.44h-6.94l-16.1 55.68h6.5l16.55-55.68zM514.68 362.88l-15.75 8.76v8.04l21.88-14.16v-5.4l-21.87-14.88v8.04l15.75 9.6z" stroke="#000" stroke-opacity="0" fill="#2a3282"/><use xlink:href="#k" transform="matrix(1,0,0,1,396.1217043608647,429) translate(38.55 14.4)"/><use xlink:href="#g" transform="matrix(1,0,0,1,396.1217043608647,429) translate(83.44999999999999 14.4)"/><path d="M45.2 879.5h123c3.3 0 6-2.7 6-6V368.04c0-3.3 2.7-6 6-6h227.42" stroke="#5e5e5e" stroke-width="2" fill="none"/><path d="M45.23 880.5H44.2v-2h1.03z" fill="#5e5e5e"/><path d="M422.9 362.04l-14.28 4.64v-9.28z" stroke="#5e5e5e" stroke-width="2" fill="#5e5e5e"/><path d="M-234.9 881h140.6" stroke="#5e5e5e" stroke-width="2" fill="none"/><path d="M-234.88 882h-1.02v-2h1.02z" fill="#5e5e5e"/><path d="M-79.04 881l-14.26 4.64v-9.28z" stroke="#5e5e5e" stroke-width="2" fill="#5e5e5e"/><path d="M1134.33 498.4h53.5v9.96h-53.5v-9.96zM1134.33 517.48h53.5v9.84h-53.5v-9.84zM1134.33 536.2h53.5v9.84h-53.5v-9.84z" stroke="#000" stroke-opacity="0" fill="#2a3282"/><path d="M1195.1 460h-75.33c-8.8 0-15.95 7.2-15.95 15.96v88.08c0 8.76 7.16 15.96 15.95 15.96h83.55c8.9 0 16.06-7.2 16.06-15.96v-80.16L1195.1 460zm8.22 110.4h-83.55c-3.35 0-6.13-2.64-6.13-6.36v-88.08c0-3.36 2.78-6.12 6.13-6.12h70.26v19.8h19.4v74.64c0 3.48-2.64 6.12-6.1 6.12z" stroke="#000" stroke-opacity="0" fill="#2a3282"/><use xlink:href="#l" transform="matrix(1,0,0,1,1073.8195945626342,589) translate(64.525 14.4)"/><path d="M424 709.75h120v120H424v-120z" stroke="#fff" stroke-opacity="0" stroke-width="2" fill="#d86613"/><path d="M520.8 809.75h-19.72c-.64 0-1.15-.32-1.4-.88l-27.92-58.32h-11.78c-.9 0-1.6-.72-1.6-1.6v-17.6c0-.88.7-1.6 1.6-1.6h24.65c.64 0 1.15.32 1.4.88l27.8 58.32h6.97c.9 0 1.6.72 1.6 1.6v17.6c0 .88-.7 1.6-1.6 1.6zm-18.7-3.2h17.1v-14.4h-6.4c-.64 0-1.15-.32-1.4-.88l-27.8-58.32H461.6v14.4h11.2c.65 0 1.16.32 1.48.88z" stroke="#fff" stroke-opacity="0" stroke-width="2" fill="#fff"/><path d="M467.96 809.75h-20.8c-.55 0-1.05-.3-1.37-.73-.33-.54-.33-1.12-.08-1.6l21.78-45.46c.24-.6.8-.93 1.4-.93.65 0 1.18.34 1.46.88l10.4 21.44c.26.44.26.93 0 1.42l-11.35 23.97c-.2.63-.77 1.02-1.44 1.02zm-18.24-3.22h17.24l10.6-22.36-8.6-17.88z" stroke="#fff" stroke-opacity="0" stroke-width="2" fill="#fff"/><use xlink:href="#m" transform="matrix(1,0,0,1,394,838.7500000000003) translate(21.944444444444443 17.77777777777778)"/><use xlink:href="#n" transform="matrix(1,0,0,1,394,838.7500000000003) translate(77.87037037037035 17.77777777777778)"/><path d="M424 938.5h120v120H424v-120z" stroke="#fff" stroke-opacity="0" stroke-width="2" fill="#d86613"/><path d="M520.8 1038.5h-19.72c-.64 0-1.15-.32-1.4-.88l-27.92-58.32h-11.78c-.9 0-1.6-.72-1.6-1.6v-17.6c0-.88.7-1.6 1.6-1.6h24.65c.64 0 1.15.32 1.4.88l27.8 58.32h6.97c.9 0 1.6.72 1.6 1.6v17.6c0 .88-.7 1.6-1.6 1.6zm-18.7-3.2h17.1v-14.4h-6.4c-.64 0-1.15-.32-1.4-.88l-27.8-58.32H461.6v14.4h11.2c.65 0 1.16.32 1.48.88z" stroke="#fff" stroke-opacity="0" stroke-width="2" fill="#fff"/><path d="M467.96 1038.5h-20.8c-.55 0-1.05-.3-1.37-.73-.33-.54-.33-1.12-.08-1.6l21.78-45.46c.24-.58.8-.92 1.4-.92.65 0 1.18.34 1.46.88l10.4 21.43c.26.43.26.92 0 1.4l-11.35 23.98c-.2.63-.77 1.02-1.44 1.02zm-18.24-3.22h17.24l10.6-22.36-8.6-17.88z" stroke="#fff" stroke-opacity="0" stroke-width="2" fill="#fff"/><use xlink:href="#m" transform="matrix(1,0,0,1,394,1067.5000000000005) translate(21.944444444444443 17.77777777777778)"/><use xlink:href="#n" transform="matrix(1,0,0,1,394,1067.5000000000005) translate(77.87037037037035 17.77777777777778)"/><path d="M1134.33 658.9h53.5v9.96h-53.5v-9.96zM1134.33 677.98h53.5v9.84h-53.5v-9.84zM1134.33 696.7h53.5v9.84h-53.5v-9.84z" stroke="#000" stroke-opacity="0" fill="#2a3282"/><path d="M1195.1 620.5h-75.33c-8.8 0-15.95 7.2-15.95 15.96v88.08c0 8.76 7.16 15.96 15.95 15.96h83.55c8.9 0 16.06-7.2 16.06-15.96v-80.16l-24.27-23.88zm8.22 110.4h-83.55c-3.35 0-6.13-2.64-6.13-6.36v-88.08c0-3.36 2.78-6.12 6.13-6.12h70.26v19.8h19.4v74.64c0 3.48-2.64 6.12-6.1 6.12z" stroke="#000" stroke-opacity="0" fill="#2a3282"/><use xlink:href="#o" transform="matrix(1,0,0,1,1073.8195945626342,749.5) translate(62.05 14.4)"/><path d="M1134.33 338.4h53.5v9.96h-53.5v-9.96zM1134.33 357.48h53.5v9.84h-53.5v-9.84zM1134.33 376.2h53.5v9.84h-53.5v-9.84z" stroke="#000" stroke-opacity="0" fill="#2a3282"/><path d="M1195.1 300h-75.33c-8.8 0-15.95 7.2-15.95 15.96v88.08c0 8.76 7.16 15.96 15.95 15.96h83.55c8.9 0 16.06-7.2 16.06-15.96v-80.16L1195.1 300zm8.22 110.4h-83.55c-3.35 0-6.13-2.64-6.13-6.36v-88.08c0-3.36 2.78-6.12 6.13-6.12h70.26v19.8h19.4v74.64c0 3.48-2.64 6.12-6.1 6.12z" stroke="#000" stroke-opacity="0" fill="#2a3282"/><use xlink:href="#p" transform="matrix(1,0,0,1,1073.8195945626342,429) translate(66 14.4)"/><path d="M1134.33 818.4h53.5v9.96h-53.5v-9.96zM1134.33 837.48h53.5v9.84h-53.5v-9.84zM1134.33 856.2h53.5v9.84h-53.5v-9.84z" stroke="#000" stroke-opacity="0" fill="#2a3282"/><path d="M1195.1 780h-75.33c-8.8 0-15.95 7.2-15.95 15.96v88.08c0 8.76 7.16 15.96 15.95 15.96h83.55c8.9 0 16.06-7.2 16.06-15.96v-80.16L1195.1 780zm8.22 110.4h-83.55c-3.35 0-6.13-2.64-6.13-6.36v-88.08c0-3.36 2.78-6.12 6.13-6.12h70.26v19.8h19.4v74.64c0 3.48-2.64 6.12-6.1 6.12z" stroke="#000" stroke-opacity="0" fill="#2a3282"/><use xlink:href="#q" transform="matrix(1,0,0,1,1073.8195945626342,909) translate(61 14.4)"/><path d="M542.88 361.2h542.44" stroke="#5e5e5e" stroke-width="2" fill="none"/><path d="M542.9 362.2h-1.02v-2h1.02z" fill="#5e5e5e"/><path d="M1100.58 361.2l-14.26 4.64v-9.28z" stroke="#5e5e5e" stroke-width="2" fill="#5e5e5e"/><path d="M542.67 516.96h542.65" stroke="#5e5e5e" stroke-width="2" fill="none"/><path d="M542.7 517.96h-1.03v-2h1.03z" fill="#5e5e5e"/><path d="M1100.58 516.96l-14.26 4.64v-9.28z" stroke="#5e5e5e" stroke-width="2" fill="#5e5e5e"/><path d="M686.3 879.5H754c3.3 0 6-2.7 6-6V686.86c0-3.3 2.7-6 6-6h319.32" stroke="#5e5e5e" stroke-width="2" fill="none"/><path d="M686.33 880.5h-1.03v-2h1.03z" fill="#5e5e5e"/><path d="M1100.58 680.86l-14.26 4.64v-9.28z" stroke="#5e5e5e" stroke-width="2" fill="#5e5e5e"/><path d="M686.3 879.5H754c3.3 0 6-2.7 6-6v-27.14c0-3.3 2.7-6 6-6h319.32" stroke="#5e5e5e" stroke-width="2" fill="none"/><path d="M686.33 880.5h-1.03v-2h1.03z" fill="#5e5e5e"/><path d="M1100.58 840.36l-14.26 4.64v-9.28z" stroke="#5e5e5e" stroke-width="2" fill="#5e5e5e"/><path d="M1057.28 1105.28c3.56 0 6.35 2.87 6.35 6.42l24.96 96v5.86c0 3.56-2.88 6.43-6.36 6.43h-74.3c-3.47 0-6.34-2.88-6.34-6.44v-5.27l28-96.6c0-3.55 2.8-6.42 6.36-6.42z" fill="#4f4f4f"/><path d="M1082.24 1100c3.48 0 6.35 2.87 6.35 6.42v101.8c0 3.55-2.88 6.42-6.36 6.42h-74.3c-3.47 0-6.34-2.87-6.34-6.42v-101.8c0-3.55 2.87-6.42 6.35-6.42z" fill="#7d7c7c"/><path d="M1075 1148.5h-59.9v-7.08h59.9zm0-11.97h-59.9v-7.07h59.9zm0-12.53h-59.9v-7.07h59.9z" fill="#fff"/><g><use xlink:href="#r" transform="matrix(1,0,0,1,1001.6013114529862,1220) translate(0.29012345679011986 17.77777777777778)"/><use xlink:href="#s" transform="matrix(1,0,0,1,1001.6013114529862,1220) translate(10.845679012345684 44.44444444444444)"/></g><path d="M686.3 879.5H754c3.3 0 6 2.7 6 6V1164c0 3.3 2.7 6 6 6h217.1" stroke="#5e5e5e" stroke-width="2" fill="none"/><path d="M686.33 880.5h-1.03v-2h1.03z" fill="#5e5e5e"/><path d="M998.37 1170l-14.27 4.64v-9.28z" stroke="#5e5e5e" stroke-width="2" fill="#5e5e5e"/><path d="M-234.9 881h68.9c3.3 0 6 2.7 6 6v277c0 3.3 2.7 6 6 6H983.1" stroke="#5e5e5e" stroke-width="2" fill="none"/><path d="M-234.88 882h-1.02v-2h1.02z" fill="#5e5e5e"/><path d="M998.37 1170l-14.27 4.64v-9.28z" stroke="#5e5e5e" stroke-width="2" fill="#5e5e5e"/><defs><path fill="#333" d="M212-179c-10-28-35-45-73-45-59 0-87 40-87 99 0 60 29 101 89 101 43 0 62-24 78-52l27 14C228-24 195 4 139 4 59 4 22-46 18-125c-6-104 99-153 187-111 19 9 31 26 39 46" id="t"/><path fill="#333" d="M24 0v-261h32V0H24" id="u"/><path fill="#333" d="M24-231v-30h32v30H24zM24 0v-190h32V0H24" id="v"/><path fill="#333" d="M100-194c63 0 86 42 84 106H49c0 40 14 67 53 68 26 1 43-12 49-29l28 8c-11 28-37 45-77 45C44 4 14-33 15-96c1-61 26-98 85-98zm52 81c6-60-76-77-97-28-3 7-6 17-6 28h103" id="w"/><path fill="#333" d="M117-194c89-4 53 116 60 194h-32v-121c0-31-8-49-39-48C34-167 62-67 57 0H25l-1-190h30c1 10-1 24 2 32 11-22 29-35 61-36" id="x"/><path fill="#333" d="M59-47c-2 24 18 29 38 22v24C64 9 27 4 27-40v-127H5v-23h24l9-43h21v43h35v23H59v120" id="y"/><g id="a"><use transform="matrix(0.06172839506172839,0,0,0.06172839506172839,0,0)" xlink:href="#t"/><use transform="matrix(0.06172839506172839,0,0,0.06172839506172839,15.987654320987653,0)" xlink:href="#u"/><use transform="matrix(0.06172839506172839,0,0,0.06172839506172839,20.864197530864196,0)" xlink:href="#v"/><use transform="matrix(0.06172839506172839,0,0,0.06172839506172839,25.74074074074074,0)" xlink:href="#w"/><use transform="matrix(0.06172839506172839,0,0,0.06172839506172839,38.08641975308642,0)" xlink:href="#x"/><use transform="matrix(0.06172839506172839,0,0,0.06172839506172839,50.432098765432094,0)" xlink:href="#y"/></g><path fill="#dd3522" d="M30 0v-248h33v221h125V0H30" id="z"/><path fill="#dd3522" d="M141-36C126-15 110 5 73 4 37 3 15-17 15-53c-1-64 63-63 125-63 3-35-9-54-41-54-24 1-41 7-42 31l-33-3c5-37 33-52 76-52 45 0 72 20 72 64v82c-1 20 7 32 28 27v20c-31 9-61-2-59-35zM48-53c0 20 12 33 32 33 41-3 63-29 60-74-43 2-92-5-92 41" id="A"/><path fill="#dd3522" d="M210-169c-67 3-38 105-44 169h-31v-121c0-29-5-50-35-48C34-165 62-65 56 0H25l-1-190h30c1 10-1 24 2 32 10-44 99-50 107 0 11-21 27-35 58-36 85-2 47 119 55 194h-31v-121c0-29-5-49-35-48" id="B"/><path fill="#dd3522" d="M115-194c53 0 69 39 70 98 0 66-23 100-70 100C84 3 66-7 56-30L54 0H23l1-261h32v101c10-23 28-34 59-34zm-8 174c40 0 45-34 45-75 0-40-5-75-45-74-42 0-51 32-51 76 0 43 10 73 51 73" id="C"/><path fill="#dd3522" d="M85-194c31 0 48 13 60 33l-1-100h32l1 261h-30c-2-10 0-23-3-31C134-8 116 4 85 4 32 4 16-35 15-94c0-66 23-100 70-100zm9 24c-40 0-46 34-46 75 0 40 6 74 45 74 42 0 51-32 51-76 0-42-9-74-50-73" id="D"/><g id="b"><use transform="matrix(0.05,0,0,0.05,0,0)" xlink:href="#z"/><use transform="matrix(0.05,0,0,0.05,10,0)" xlink:href="#A"/><use transform="matrix(0.05,0,0,0.05,20,0)" xlink:href="#B"/><use transform="matrix(0.05,0,0,0.05,34.95,0)" xlink:href="#C"/><use transform="matrix(0.05,0,0,0.05,44.95,0)" xlink:href="#D"/><use transform="matrix(0.05,0,0,0.05,54.95,0)" xlink:href="#A"/></g><path fill="#dd3522" d="M198-261c85 0 136 45 136 128 0 61-22 111-78 115-29 2-39-18-37-44-12 23-32 44-66 44-41 0-58-28-58-68 0-60 30-105 88-108 29-1 43 15 54 32l7-28h28c-9 45-23 84-27 134-1 11 6 17 14 16 39-4 51-48 51-92 0-69-42-107-112-107-93 0-145 59-145 153C53-15 94 26 168 27c43 0 78-13 106-28l9 19c-30 18-67 32-115 32C79 50 28-1 28-86c0-107 62-175 170-175zM158-41c46 0 70-43 70-90 0-26-17-40-43-40-44 0-59 41-61 85-1 26 9 45 34 45" id="E"/><path fill="#dd3522" d="M30 0v-248h187v28H63v79h144v27H63v87h162V0H30" id="F"/><path fill="#dd3522" d="M177-190C167-65 218 103 67 71c-23-6-38-20-44-43l32-5c15 47 100 32 89-28v-30C133-14 115 1 83 1 29 1 15-40 15-95c0-56 16-97 71-98 29-1 48 16 59 35 1-10 0-23 2-32h30zM94-22c36 0 50-32 50-73 0-42-14-75-50-75-39 0-46 34-46 75s6 73 46 73" id="G"/><path fill="#dd3522" d="M100-194c63 0 86 42 84 106H49c0 40 14 67 53 68 26 1 43-12 49-29l28 8c-11 28-37 45-77 45C44 4 14-33 15-96c1-61 26-98 85-98zm52 81c6-60-76-77-97-28-3 7-6 17-6 28h103" id="H"/><g id="c"><use transform="matrix(0.05,0,0,0.05,0,0)" xlink:href="#E"/><use transform="matrix(0.05,0,0,0.05,18.25,0)" xlink:href="#F"/><use transform="matrix(0.05,0,0,0.05,30.25,0)" xlink:href="#D"/><use transform="matrix(0.05,0,0,0.05,40.25,0)" xlink:href="#G"/><use transform="matrix(0.05,0,0,0.05,50.25,0)" xlink:href="#H"/></g><path fill="#333" d="M205 0l-28-72H64L36 0H1l101-248h38L239 0h-34zm-38-99l-47-123c-12 45-31 82-46 123h93" id="I"/><path fill="#333" d="M210-169c-67 3-38 105-44 169h-31v-121c0-29-5-50-35-48C34-165 62-65 56 0H25l-1-190h30c1 10-1 24 2 32 10-44 99-50 107 0 11-21 27-35 58-36 85-2 47 119 55 194h-31v-121c0-29-5-49-35-48" id="J"/><path fill="#333" d="M141-36C126-15 110 5 73 4 37 3 15-17 15-53c-1-64 63-63 125-63 3-35-9-54-41-54-24 1-41 7-42 31l-33-3c5-37 33-52 76-52 45 0 72 20 72 64v82c-1 20 7 32 28 27v20c-31 9-61-2-59-35zM48-53c0 20 12 33 32 33 41-3 63-29 60-74-43 2-92-5-92 41" id="K"/><path fill="#333" d="M9 0v-24l116-142H16v-24h144v24L44-24h123V0H9" id="L"/><path fill="#333" d="M100-194c62-1 85 37 85 99 1 63-27 99-86 99S16-35 15-95c0-66 28-99 85-99zM99-20c44 1 53-31 53-75 0-43-8-75-51-75s-53 32-53 75 10 74 51 75" id="M"/><g id="d"><use transform="matrix(0.06172839506172839,0,0,0.06172839506172839,0,0)" xlink:href="#I"/><use transform="matrix(0.06172839506172839,0,0,0.06172839506172839,14.814814814814813,0)" xlink:href="#J"/><use transform="matrix(0.06172839506172839,0,0,0.06172839506172839,33.2716049382716,0)" xlink:href="#K"/><use transform="matrix(0.06172839506172839,0,0,0.06172839506172839,45.61728395061728,0)" xlink:href="#L"/><use transform="matrix(0.06172839506172839,0,0,0.06172839506172839,56.72839506172839,0)" xlink:href="#M"/><use transform="matrix(0.06172839506172839,0,0,0.06172839506172839,69.07407407407408,0)" xlink:href="#x"/></g><path fill="#333" d="M84 4C-5 8 30-112 23-190h32v120c0 31 7 50 39 49 72-2 45-101 50-169h31l1 190h-30c-1-10 1-25-2-33-11 22-28 36-60 37" id="N"/><path fill="#333" d="M85-194c31 0 48 13 60 33l-1-100h32l1 261h-30c-2-10 0-23-3-31C134-8 116 4 85 4 32 4 16-35 15-94c0-66 23-100 70-100zm9 24c-40 0-46 34-46 75 0 40 6 74 45 74 42 0 51-32 51-76 0-42-9-74-50-73" id="O"/><path fill="#333" d="M63-220v92h138v28H63V0H30v-248h175v28H63" id="P"/><path fill="#333" d="M114-163C36-179 61-72 57 0H25l-1-190h30c1 12-1 29 2 39 6-27 23-49 58-41v29" id="Q"/><g id="e"><use transform="matrix(0.06172839506172839,0,0,0.06172839506172839,0,0)" xlink:href="#t"/><use transform="matrix(0.06172839506172839,0,0,0.06172839506172839,15.987654320987653,0)" xlink:href="#u"/><use transform="matrix(0.06172839506172839,0,0,0.06172839506172839,20.864197530864196,0)" xlink:href="#M"/><use transform="matrix(0.06172839506172839,0,0,0.06172839506172839,33.20987654320987,0)" xlink:href="#N"/><use transform="matrix(0.06172839506172839,0,0,0.06172839506172839,45.55555555555555,0)" xlink:href="#O"/><use transform="matrix(0.06172839506172839,0,0,0.06172839506172839,57.90123456790123,0)" xlink:href="#P"/><use transform="matrix(0.06172839506172839,0,0,0.06172839506172839,71.41975308641975,0)" xlink:href="#Q"/><use transform="matrix(0.06172839506172839,0,0,0.06172839506172839,78.76543209876543,0)" xlink:href="#M"/><use transform="matrix(0.06172839506172839,0,0,0.06172839506172839,91.11111111111111,0)" xlink:href="#x"/><use transform="matrix(0.06172839506172839,0,0,0.06172839506172839,103.4567901234568,0)" xlink:href="#y"/></g><path d="M185-189c-5-48-123-54-124 2 14 75 158 14 163 119 3 78-121 87-175 55-17-10-28-26-33-46l33-7c5 56 141 63 141-1 0-78-155-14-162-118-5-82 145-84 179-34 5 7 8 16 11 25" id="R"/><path d="M59-47c-2 24 18 29 38 22v24C64 9 27 4 27-40v-127H5v-23h24l9-43h21v43h35v23H59v120" id="S"/><path d="M141-36C126-15 110 5 73 4 37 3 15-17 15-53c-1-64 63-63 125-63 3-35-9-54-41-54-24 1-41 7-42 31l-33-3c5-37 33-52 76-52 45 0 72 20 72 64v82c-1 20 7 32 28 27v20c-31 9-61-2-59-35zM48-53c0 20 12 33 32 33 41-3 63-29 60-74-43 2-92-5-92 41" id="T"/><path d="M24-231v-30h32v30H24zM24 0v-190h32V0H24" id="U"/><path d="M96-169c-40 0-48 33-48 73s9 75 48 75c24 0 41-14 43-38l32 2c-6 37-31 61-74 61-59 0-76-41-82-99-10-93 101-131 147-64 4 7 5 14 7 22l-32 3c-4-21-16-35-41-35" id="V"/><g id="f"><use transform="matrix(0.05,0,0,0.05,0,0)" xlink:href="#R"/><use transform="matrix(0.05,0,0,0.05,12,0)" xlink:href="#S"/><use transform="matrix(0.05,0,0,0.05,17,0)" xlink:href="#T"/><use transform="matrix(0.05,0,0,0.05,27,0)" xlink:href="#S"/><use transform="matrix(0.05,0,0,0.05,32,0)" xlink:href="#U"/><use transform="matrix(0.05,0,0,0.05,35.95,0)" xlink:href="#V"/></g><path d="M205 0l-28-72H64L36 0H1l101-248h38L239 0h-34zm-38-99l-47-123c-12 45-31 82-46 123h93" id="W"/><path d="M135-143c-3-34-86-38-87 0 15 53 115 12 119 90S17 21 10-45l28-5c4 36 97 45 98 0-10-56-113-15-118-90-4-57 82-63 122-42 12 7 21 19 24 35" id="X"/><path d="M100-194c63 0 86 42 84 106H49c0 40 14 67 53 68 26 1 43-12 49-29l28 8c-11 28-37 45-77 45C44 4 14-33 15-96c1-61 26-98 85-98zm52 81c6-60-76-77-97-28-3 7-6 17-6 28h103" id="Y"/><g id="g"><use transform="matrix(0.05,0,0,0.05,0,0)" xlink:href="#W"/><use transform="matrix(0.05,0,0,0.05,12,0)" xlink:href="#X"/><use transform="matrix(0.05,0,0,0.05,21,0)" xlink:href="#X"/><use transform="matrix(0.05,0,0,0.05,30,0)" xlink:href="#Y"/><use transform="matrix(0.05,0,0,0.05,40,0)" xlink:href="#S"/><use transform="matrix(0.05,0,0,0.05,45,0)" xlink:href="#X"/></g><path fill="#248814" d="M185-189c-5-48-123-54-124 2 14 75 158 14 163 119 3 78-121 87-175 55-17-10-28-26-33-46l33-7c5 56 141 63 141-1 0-78-155-14-162-118-5-82 145-84 179-34 5 7 8 16 11 25" id="Z"/><path fill="#248814" d="M126-127c33 6 58 20 58 59 0 88-139 92-164 29-3-8-5-16-6-25l32-3c6 27 21 44 54 44 32 0 52-15 52-46 0-38-36-46-79-43v-28c39 1 72-4 72-42 0-27-17-43-46-43-28 0-47 15-49 41l-32-3c6-42 35-63 81-64 48-1 79 21 79 65 0 36-21 52-52 59" id="aa"/><g id="i"><use transform="matrix(0.05,0,0,0.05,0,0)" xlink:href="#Z"/><use transform="matrix(0.05,0,0,0.05,12,0)" xlink:href="#aa"/></g><path fill="#248814" d="M160-131c35 5 61 23 61 61C221 17 115-2 30 0v-248c76 3 177-17 177 60 0 33-19 50-47 57zm-97-11c50-1 110 9 110-42 0-47-63-36-110-37v79zm0 115c55-2 124 14 124-45 0-56-70-42-124-44v89" id="ab"/><path fill="#248814" d="M84 4C-5 8 30-112 23-190h32v120c0 31 7 50 39 49 72-2 45-101 50-169h31l1 190h-30c-1-10 1-25-2-33-11 22-28 36-60 37" id="ac"/><path fill="#248814" d="M96-169c-40 0-48 33-48 73s9 75 48 75c24 0 41-14 43-38l32 2c-6 37-31 61-74 61-59 0-76-41-82-99-10-93 101-131 147-64 4 7 5 14 7 22l-32 3c-4-21-16-35-41-35" id="ad"/><path fill="#248814" d="M143 0L79-87 56-68V0H24v-261h32v163l83-92h37l-77 82L181 0h-38" id="ae"/><path fill="#248814" d="M100-194c63 0 86 42 84 106H49c0 40 14 67 53 68 26 1 43-12 49-29l28 8c-11 28-37 45-77 45C44 4 14-33 15-96c1-61 26-98 85-98zm52 81c6-60-76-77-97-28-3 7-6 17-6 28h103" id="af"/><path fill="#248814" d="M59-47c-2 24 18 29 38 22v24C64 9 27 4 27-40v-127H5v-23h24l9-43h21v43h35v23H59v120" id="ag"/><g id="j"><use transform="matrix(0.05,0,0,0.05,0,0)" xlink:href="#ab"/><use transform="matrix(0.05,0,0,0.05,12,0)" xlink:href="#ac"/><use transform="matrix(0.05,0,0,0.05,22,0)" xlink:href="#ad"/><use transform="matrix(0.05,0,0,0.05,31,0)" xlink:href="#ae"/><use transform="matrix(0.05,0,0,0.05,40,0)" xlink:href="#af"/><use transform="matrix(0.05,0,0,0.05,50,0)" xlink:href="#ag"/></g><path d="M160-131c35 5 61 23 61 61C221 17 115-2 30 0v-248c76 3 177-17 177 60 0 33-19 50-47 57zm-97-11c50-1 110 9 110-42 0-47-63-36-110-37v79zm0 115c55-2 124 14 124-45 0-56-70-42-124-44v89" id="ah"/><path d="M84 4C-5 8 30-112 23-190h32v120c0 31 7 50 39 49 72-2 45-101 50-169h31l1 190h-30c-1-10 1-25-2-33-11 22-28 36-60 37" id="ai"/><path d="M24 0v-261h32V0H24" id="aj"/><path d="M85-194c31 0 48 13 60 33l-1-100h32l1 261h-30c-2-10 0-23-3-31C134-8 116 4 85 4 32 4 16-35 15-94c0-66 23-100 70-100zm9 24c-40 0-46 34-46 75 0 40 6 74 45 74 42 0 51-32 51-76 0-42-9-74-50-73" id="ak"/><g id="k"><use transform="matrix(0.05,0,0,0.05,0,0)" xlink:href="#ah"/><use transform="matrix(0.05,0,0,0.05,12,0)" xlink:href="#ai"/><use transform="matrix(0.05,0,0,0.05,22,0)" xlink:href="#U"/><use transform="matrix(0.05,0,0,0.05,25.950000000000003,0)" xlink:href="#aj"/><use transform="matrix(0.05,0,0,0.05,29.899999999999995,0)" xlink:href="#ak"/></g><path d="M0 4l72-265h28L28 4H0" id="al"/><g id="l"><use transform="matrix(0.05,0,0,0.05,0,0)" xlink:href="#al"/><use transform="matrix(0.05,0,0,0.05,5,0)" xlink:href="#X"/><use transform="matrix(0.05,0,0,0.05,14,0)" xlink:href="#S"/><use transform="matrix(0.05,0,0,0.05,19,0)" xlink:href="#T"/><use transform="matrix(0.05,0,0,0.05,29,0)" xlink:href="#S"/><use transform="matrix(0.05,0,0,0.05,34,0)" xlink:href="#U"/><use transform="matrix(0.05,0,0,0.05,37.95,0)" xlink:href="#V"/></g><path fill="#333" d="M266 0h-40l-56-210L115 0H75L2-248h35L96-30l15-64 43-154h32l59 218 59-218h35" id="am"/><path fill="#333" d="M185-189c-5-48-123-54-124 2 14 75 158 14 163 119 3 78-121 87-175 55-17-10-28-26-33-46l33-7c5 56 141 63 141-1 0-78-155-14-162-118-5-82 145-84 179-34 5 7 8 16 11 25" id="an"/><g id="m"><use transform="matrix(0.06172839506172839,0,0,0.06172839506172839,0,0)" xlink:href="#I"/><use transform="matrix(0.06172839506172839,0,0,0.06172839506172839,14.012345679012345,0)" xlink:href="#am"/><use transform="matrix(0.06172839506172839,0,0,0.06172839506172839,34.938271604938265,0)" xlink:href="#an"/></g><path fill="#333" d="M30 0v-248h33v221h125V0H30" id="ao"/><path fill="#333" d="M115-194c53 0 69 39 70 98 0 66-23 100-70 100C84 3 66-7 56-30L54 0H23l1-261h32v101c10-23 28-34 59-34zm-8 174c40 0 45-34 45-75 0-40-5-75-45-74-42 0-51 32-51 76 0 43 10 73 51 73" id="ap"/><g id="n"><use transform="matrix(0.06172839506172839,0,0,0.06172839506172839,0,0)" xlink:href="#ao"/><use transform="matrix(0.06172839506172839,0,0,0.06172839506172839,12.345679012345679,0)" xlink:href="#K"/><use transform="matrix(0.06172839506172839,0,0,0.06172839506172839,24.691358024691358,0)" xlink:href="#J"/><use transform="matrix(0.06172839506172839,0,0,0.06172839506172839,43.148148148148145,0)" xlink:href="#ap"/><use transform="matrix(0.06172839506172839,0,0,0.06172839506172839,55.49382716049382,0)" xlink:href="#O"/><use transform="matrix(0.06172839506172839,0,0,0.06172839506172839,67.8395061728395,0)" xlink:href="#K"/></g><path d="M115-194c55 1 70 41 70 98S169 2 115 4C84 4 66-9 55-30l1 105H24l-1-265h31l2 30c10-21 28-34 59-34zm-8 174c40 0 45-34 45-75s-6-73-45-74c-42 0-51 32-51 76 0 43 10 73 51 73" id="aq"/><path d="M115-194c53 0 69 39 70 98 0 66-23 100-70 100C84 3 66-7 56-30L54 0H23l1-261h32v101c10-23 28-34 59-34zm-8 174c40 0 45-34 45-75 0-40-5-75-45-74-42 0-51 32-51 76 0 43 10 73 51 73" id="ar"/><g id="o"><use transform="matrix(0.05,0,0,0.05,0,0)" xlink:href="#al"/><use transform="matrix(0.05,0,0,0.05,5,0)" xlink:href="#aq"/><use transform="matrix(0.05,0,0,0.05,15,0)" xlink:href="#ai"/><use transform="matrix(0.05,0,0,0.05,25,0)" xlink:href="#ar"/><use transform="matrix(0.05,0,0,0.05,35,0)" xlink:href="#aj"/><use transform="matrix(0.05,0,0,0.05,38.95,0)" xlink:href="#U"/><use transform="matrix(0.05,0,0,0.05,42.900000000000006,0)" xlink:href="#V"/></g><path d="M33 0v-38h34V0H33" id="as"/><path d="M117-194c89-4 53 116 60 194h-32v-121c0-31-8-49-39-48C34-167 62-67 57 0H25l-1-190h30c1 10-1 24 2 32 11-22 29-35 61-36" id="at"/><path d="M141 0L90-78 38 0H4l68-98-65-92h35l48 74 47-74h35l-64 92 68 98h-35" id="au"/><g id="p"><use transform="matrix(0.05,0,0,0.05,0,0)" xlink:href="#al"/><use transform="matrix(0.05,0,0,0.05,5,0)" xlink:href="#as"/><use transform="matrix(0.05,0,0,0.05,10,0)" xlink:href="#at"/><use transform="matrix(0.05,0,0,0.05,20,0)" xlink:href="#Y"/><use transform="matrix(0.05,0,0,0.05,30,0)" xlink:href="#au"/><use transform="matrix(0.05,0,0,0.05,39,0)" xlink:href="#S"/></g><path d="M177-190C167-65 218 103 67 71c-23-6-38-20-44-43l32-5c15 47 100 32 89-28v-30C133-14 115 1 83 1 29 1 15-40 15-95c0-56 16-97 71-98 29-1 48 16 59 35 1-10 0-23 2-32h30zM94-22c36 0 50-32 50-73 0-42-14-75-50-75-39 0-46 34-46 75s6 73 46 73" id="av"/><g id="q"><use transform="matrix(0.05,0,0,0.05,0,0)" xlink:href="#al"/><use transform="matrix(0.05,0,0,0.05,5,0)" xlink:href="#aq"/><use transform="matrix(0.05,0,0,0.05,15,0)" xlink:href="#T"/><use transform="matrix(0.05,0,0,0.05,25,0)" xlink:href="#av"/><use transform="matrix(0.05,0,0,0.05,35,0)" xlink:href="#Y"/><use transform="matrix(0.05,0,0,0.05,45,0)" xlink:href="#X"/></g><path fill="#333" d="M160-131c35 5 61 23 61 61C221 17 115-2 30 0v-248c76 3 177-17 177 60 0 33-19 50-47 57zm-97-11c50-1 110 9 110-42 0-47-63-36-110-37v79zm0 115c55-2 124 14 124-45 0-56-70-42-124-44v89" id="aw"/><path fill="#333" d="M96-169c-40 0-48 33-48 73s9 75 48 75c24 0 41-14 43-38l32 2c-6 37-31 61-74 61-59 0-76-41-82-99-10-93 101-131 147-64 4 7 5 14 7 22l-32 3c-4-21-16-35-41-35" id="ax"/><path fill="#333" d="M143 0L79-87 56-68V0H24v-261h32v163l83-92h37l-77 82L181 0h-38" id="ay"/><g id="r"><use transform="matrix(0.06172839506172839,0,0,0.06172839506172839,0,0)" xlink:href="#aw"/><use transform="matrix(0.06172839506172839,0,0,0.06172839506172839,14.814814814814813,0)" xlink:href="#K"/><use transform="matrix(0.06172839506172839,0,0,0.06172839506172839,27.160493827160494,0)" xlink:href="#ax"/><use transform="matrix(0.06172839506172839,0,0,0.06172839506172839,38.27160493827161,0)" xlink:href="#ay"/><use transform="matrix(0.06172839506172839,0,0,0.06172839506172839,49.38271604938272,0)" xlink:href="#w"/><use transform="matrix(0.06172839506172839,0,0,0.06172839506172839,61.7283950617284,0)" xlink:href="#x"/><use transform="matrix(0.06172839506172839,0,0,0.06172839506172839,74.07407407407408,0)" xlink:href="#O"/></g><path fill="#333" d="M108 0H70L1-190h34L89-25l56-165h34" id="az"/><g id="s"><use transform="matrix(0.06172839506172839,0,0,0.06172839506172839,0,0)" xlink:href="#an"/><use transform="matrix(0.06172839506172839,0,0,0.06172839506172839,14.814814814814813,0)" xlink:href="#w"/><use transform="matrix(0.06172839506172839,0,0,0.06172839506172839,27.160493827160494,0)" xlink:href="#Q"/><use transform="matrix(0.06172839506172839,0,0,0.06172839506172839,34.50617283950617,0)" xlink:href="#az"/><use transform="matrix(0.06172839506172839,0,0,0.06172839506172839,45.61728395061728,0)" xlink:href="#w"/><use transform="matrix(0.06172839506172839,0,0,0.06172839506172839,57.962962962962955,0)" xlink:href="#Q"/></g></defs></g></svg>