<svg xmlns="http://www.w3.org/2000/svg" xmlns:xlink="http://www.w3.org/1999/xlink" xmlns:lucid="lucid" width="1282" height="990"><g transform="translate(-40 -240)" lucid:page-tab-id="0_0"><path d="M280 370c0-2.76 2.24-5 5-5h963.5c1.38 0 2.5-1.12 2.5-2.5s.75-1.67 1.67-.64l3.32 3.68c2.2 2.46 2.2 6.46 0 8.92l-3.33 3.68c-.92 1.03-1.67.74-1.67-.64s-1.12-2.5-2.5-2.5H285c-2.76 0-5-2.24-5-5z" stroke="#5e5e5e" stroke-width="3"/><path d="M175 356c0-3.3 2.7-6 6-6h68c3.3 0 6 2.7 6 6v28c0 3.3-2.7 6-6 6h-68c-3.3 0-6-2.7-6-6z" stroke="#000" stroke-opacity="0" stroke-width="3" fill="#fff" fill-opacity="0"/><use xlink:href="#a" transform="matrix(1,0,0,1,180,355) translate(0.5617283950617349 24.888888888888886)"/><path d="M280 316c0-3.3 2.7-6 6-6h148c3.3 0 6 2.7 6 6v28c0 3.3-2.7 6-6 6H286c-3.3 0-6-2.7-6-6z" stroke="#4a496d" stroke-width="3" fill="#4a496d"/><use xlink:href="#b" transform="matrix(1,0,0,1,285,315) translate(34.32098765432098 19.65277777777778)"/><path d="M280 396c0-3.3 2.7-6 6-6h48c3.3 0 6 2.7 6 6v28c0 3.3-2.7 6-6 6h-48c-3.3 0-6-2.7-6-6z" stroke="#000" stroke-opacity="0" stroke-width="3" fill="#fff" fill-opacity="0"/><use xlink:href="#c" transform="matrix(1,0,0,1,285,395) translate(2.222222222222225 19.65277777777778)"/><path d="M680 266c0-3.3 2.7-6 6-6h148c3.3 0 6 2.7 6 6v28c0 3.3-2.7 6-6 6H686c-3.3 0-6-2.7-6-6z" stroke="#ffb77d" stroke-width="3" fill="#ffb77d"/><use xlink:href="#d" transform="matrix(1,0,0,1,685,265) translate(31.203703703703695 19.65277777777778)"/><path d="M280 266c0-3.3 2.7-6 6-6h148c3.3 0 6 2.7 6 6v28c0 3.3-2.7 6-6 6H286c-3.3 0-6-2.7-6-6z" stroke="#96bb7c" stroke-width="3" fill="#184d47"/><use xlink:href="#e" transform="matrix(1,0,0,1,285,265) translate(25.061728395061735 19.65277777777778)"/><path d="M1175 396c0-3.3 2.7-6 6-6h48c3.3 0 6 2.7 6 6v28c0 3.3-2.7 6-6 6h-48c-3.3 0-6-2.7-6-6z" stroke="#000" stroke-opacity="0" stroke-width="3" fill="#fff" fill-opacity="0"/><use xlink:href="#f" transform="matrix(1,0,0,1,1180,395) translate(2.8086419753086425 19.65277777777778)"/><path d="M880 316c0-3.3 2.7-6 6-6h148c3.3 0 6 2.7 6 6v28c0 3.3-2.7 6-6 6H886c-3.3 0-6-2.7-6-6z" stroke="#ff8a56" stroke-width="3" fill="#ff8a56"/><use xlink:href="#g" transform="matrix(1,0,0,1,885,315) translate(43.611111111111114 19.65277777777778)"/><path d="M680 316c0-3.3 2.7-6 6-6h148c3.3 0 6 2.7 6 6v28c0 3.3-2.7 6-6 6H686c-3.3 0-6-2.7-6-6z" stroke="#6ace91" stroke-width="3" fill="#6ace91"/><use xlink:href="#h" transform="matrix(1,0,0,1,685,315) translate(21.388888888888893 19.65277777777778)"/><path d="M280 590c0-2.76 2.24-5 5-5h963.5c1.38 0 2.5-1.12 2.5-2.5s.75-1.67 1.67-.64l3.32 3.68c2.2 2.46 2.2 6.46 0 8.92l-3.33 3.68c-.92 1.03-1.67.74-1.67-.64s-1.12-2.5-2.5-2.5H285c-2.76 0-5-2.24-5-5z" stroke="#5e5e5e" stroke-width="3"/><path d="M60 576c0-3.3 2.7-6 6-6h188c3.3 0 6 2.7 6 6v28c0 3.3-2.7 6-6 6H66c-3.3 0-6-2.7-6-6z" stroke="#000" stroke-opacity="0" stroke-width="3" fill="#fff" fill-opacity="0"/><use xlink:href="#i" transform="matrix(1,0,0,1,65,575) translate(3.6111111111111427 24.888888888888886)"/><use xlink:href="#j" transform="matrix(1,0,0,1,65,575) translate(81.30246913580248 24.888888888888886)"/><path d="M1075 486c0-3.3 2.7-6 6-6h148c3.3 0 6 2.7 6 6v28c0 3.3-2.7 6-6 6h-148c-3.3 0-6-2.7-6-6z" stroke="#ff8a56" stroke-width="3" fill="#ff8a56"/><use xlink:href="#g" transform="matrix(1,0,0,1,1080,485) translate(43.611111111111114 19.65277777777778)"/><path d="M1075 536c0-3.3 2.7-6 6-6h148c3.3 0 6 2.7 6 6v28c0 3.3-2.7 6-6 6h-148c-3.3 0-6-2.7-6-6z" stroke="#6ace91" stroke-width="3" fill="#6ace91"/><use xlink:href="#h" transform="matrix(1,0,0,1,1080,535) translate(21.388888888888893 19.65277777777778)"/><path d="M280 536c0-3.3 2.7-6 6-6h148c3.3 0 6 2.7 6 6v28c0 3.3-2.7 6-6 6H286c-3.3 0-6-2.7-6-6z" stroke="#ffb77d" stroke-width="3" fill="#ffb77d"/><use xlink:href="#d" transform="matrix(1,0,0,1,285,535) translate(31.203703703703695 19.65277777777778)"/><path d="M280 486c0-3.3 2.7-6 6-6h148c3.3 0 6 2.7 6 6v28c0 3.3-2.7 6-6 6H286c-3.3 0-6-2.7-6-6z" stroke="#4a496d" stroke-width="3" fill="#4a496d"/><use xlink:href="#b" transform="matrix(1,0,0,1,285,485) translate(34.32098765432098 19.65277777777778)"/><path d="M280 860c0-2.76 2.24-5 5-5h963.5c1.38 0 2.5-1.12 2.5-2.5s.75-1.67 1.67-.64l3.32 3.68c2.2 2.46 2.2 6.46 0 8.92l-3.33 3.68c-.92 1.03-1.67.74-1.67-.64s-1.12-2.5-2.5-2.5H285c-2.76 0-5-2.24-5-5z" stroke="#5e5e5e" stroke-width="3"/><path d="M123 846c0-3.3 2.7-6 6-6h136c3.3 0 6 2.7 6 6v28c0 3.3-2.7 6-6 6H129c-3.3 0-6-2.7-6-6z" stroke="#000" stroke-opacity="0" stroke-width="3" fill="#fff" fill-opacity="0"/><use xlink:href="#k" transform="matrix(1,0,0,1,128,845) translate(13.691358024691368 24.888888888888886)"/><path d="M240 876c0-3.3 2.7-6 6-6h228c3.3 0 6 2.7 6 6v48c0 3.3-2.7 6-6 6H246c-3.3 0-6-2.7-6-6z" stroke="#000" stroke-opacity="0" stroke-width="3" fill="#fff" fill-opacity="0"/><use xlink:href="#l" transform="matrix(1,0,0,1,245,875) translate(40.46296296296295 30.27777777777778)"/><path d="M1062 876c0-3.3 2.7-6 6-6h228c3.3 0 6 2.7 6 6v48c0 3.3-2.7 6-6 6h-228c-3.3 0-6-2.7-6-6z" stroke="#000" stroke-opacity="0" stroke-width="3" fill="#fff" fill-opacity="0"/><use xlink:href="#m" transform="matrix(1,0,0,1,1067,875) translate(73.08641975308642 30.27777777777778)"/><path d="M1075 806c0-3.3 2.7-6 6-6h148c3.3 0 6 2.7 6 6v28c0 3.3-2.7 6-6 6h-148c-3.3 0-6-2.7-6-6z" stroke="#ff8a56" stroke-width="3" fill="#ff8a56"/><use xlink:href="#g" transform="matrix(1,0,0,1,1080,805) translate(43.611111111111114 19.65277777777778)"/><path d="M280 806c0-3.3 2.7-6 6-6h148c3.3 0 6 2.7 6 6v28c0 3.3-2.7 6-6 6H286c-3.3 0-6-2.7-6-6z" stroke="#ffb77d" stroke-width="3" fill="#ffb77d"/><use xlink:href="#d" transform="matrix(1,0,0,1,285,805) translate(31.203703703703695 19.65277777777778)"/><path d="M280 756c0-3.3 2.7-6 6-6h148c3.3 0 6 2.7 6 6v28c0 3.3-2.7 6-6 6H286c-3.3 0-6-2.7-6-6z" stroke="#4a496d" stroke-width="3" fill="#4a496d"/><use xlink:href="#b" transform="matrix(1,0,0,1,285,755) translate(34.32098765432098 19.65277777777778)"/><path d="M680 806c0-3.3 2.7-6 6-6h148c3.3 0 6 2.7 6 6v28c0 3.3-2.7 6-6 6H686c-3.3 0-6-2.7-6-6z" stroke="#6ace91" stroke-width="3" fill="#6ace91"/><use xlink:href="#h" transform="matrix(1,0,0,1,685,805) translate(21.388888888888893 19.65277777777778)"/><path d="M280 1140c0-2.76 2.24-5 5-5h963.5c1.38 0 2.5-1.12 2.5-2.5s.75-1.67 1.67-.64l3.32 3.68c2.2 2.46 2.2 6.46 0 8.92l-3.33 3.68c-.92 1.03-1.67.74-1.67-.64s-1.12-2.5-2.5-2.5H285c-2.76 0-5-2.24-5-5z" stroke="#5e5e5e" stroke-width="3"/><path d="M69 1126c0-3.3 2.7-6 6-6h188c3.3 0 6 2.7 6 6v28c0 3.3-2.7 6-6 6H75c-3.3 0-6-2.7-6-6z" stroke="#000" stroke-opacity="0" stroke-width="3" fill="#fff" fill-opacity="0"/><use xlink:href="#n" transform="matrix(1,0,0,1,74,1125) translate(13.59259259259261 24.888888888888886)"/><path d="M1075 1036c0-3.3 2.7-6 6-6h148c3.3 0 6 2.7 6 6v28c0 3.3-2.7 6-6 6h-148c-3.3 0-6-2.7-6-6z" stroke="#ff8a56" stroke-width="3" fill="#ff8a56"/><use xlink:href="#g" transform="matrix(1,0,0,1,1080,1035) translate(43.611111111111114 19.65277777777778)"/><path d="M280 1086c0-3.3 2.7-6 6-6h148c3.3 0 6 2.7 6 6v28c0 3.3-2.7 6-6 6H286c-3.3 0-6-2.7-6-6z" stroke="#ffb77d" stroke-width="3" fill="#ffb77d"/><use xlink:href="#d" transform="matrix(1,0,0,1,285,1085) translate(31.203703703703695 19.65277777777778)"/><path d="M280 1036c0-3.3 2.7-6 6-6h148c3.3 0 6 2.7 6 6v28c0 3.3-2.7 6-6 6H286c-3.3 0-6-2.7-6-6z" stroke="#4a496d" stroke-width="3" fill="#4a496d"/><use xlink:href="#b" transform="matrix(1,0,0,1,285,1035) translate(34.32098765432098 19.65277777777778)"/><path d="M1075 1086c0-3.3 2.7-6 6-6h148c3.3 0 6 2.7 6 6v28c0 3.3-2.7 6-6 6h-148c-3.3 0-6-2.7-6-6z" stroke="#6ace91" stroke-width="3" fill="#6ace91"/><use xlink:href="#h" transform="matrix(1,0,0,1,1080,1085) translate(21.388888888888893 19.65277777777778)"/><path d="M228 1156c0-3.3 2.7-6 6-6h228c3.3 0 6 2.7 6 6v48c0 3.3-2.7 6-6 6H234c-3.3 0-6-2.7-6-6z" stroke="#000" stroke-opacity="0" stroke-width="3" fill="#fff" fill-opacity="0"/><use xlink:href="#o" transform="matrix(1,0,0,1,233,1155) translate(50.86419753086419 30.27777777777778)"/><path d="M1054 1156c0-3.3 2.7-6 6-6h228c3.3 0 6 2.7 6 6v48c0 3.3-2.7 6-6 6h-228c-3.3 0-6-2.7-6-6z" stroke="#000" stroke-opacity="0" stroke-width="3" fill="#fff" fill-opacity="0"/><use xlink:href="#p" transform="matrix(1,0,0,1,1059,1155) translate(60.80246913580247 30.27777777777778)"/><path d="M228 606c0-3.3 2.7-6 6-6h228c3.3 0 6 2.7 6 6v48c0 3.3-2.7 6-6 6H234c-3.3 0-6-2.7-6-6z" stroke="#000" stroke-opacity="0" stroke-width="3" fill="#fff" fill-opacity="0"/><use xlink:href="#q" transform="matrix(1,0,0,1,233,605) translate(48.36419753086419 30.27777777777778)"/><use xlink:href="#r" transform="matrix(1,0,0,1,233,605) translate(101.4506172839506 30.27777777777778)"/><path d="M1040 606c0-3.3 2.7-6 6-6h228c3.3 0 6 2.7 6 6v48c0 3.3-2.7 6-6 6h-228c-3.3 0-6-2.7-6-6z" stroke="#000" stroke-opacity="0" stroke-width="3" fill="#fff" fill-opacity="0"/><use xlink:href="#s" transform="matrix(1,0,0,1,1045,605) translate(46.574074074074076 30.27777777777778)"/><use xlink:href="#r" transform="matrix(1,0,0,1,1045,605) translate(103.24074074074073 30.27777777777778)"/><path d="M680 536c0-3.3 2.7-6 6-6h148c3.3 0 6 2.7 6 6v28c0 3.3-2.7 6-6 6H686c-3.3 0-6-2.7-6-6z" stroke="#96bb7c" stroke-width="3" fill="#184d47"/><use xlink:href="#t" transform="matrix(1,0,0,1,685,535) translate(25.061728395061735 19.65277777777778)"/><path d="M280 706c0-3.3 2.7-6 6-6h148c3.3 0 6 2.7 6 6v28c0 3.3-2.7 6-6 6H286c-3.3 0-6-2.7-6-6z" stroke="#96bb7c" stroke-width="3" fill="#184d47"/><use xlink:href="#t" transform="matrix(1,0,0,1,285,705) translate(25.061728395061735 19.65277777777778)"/><path d="M280 986c0-3.3 2.7-6 6-6h148c3.3 0 6 2.7 6 6v28c0 3.3-2.7 6-6 6H286c-3.3 0-6-2.7-6-6z" stroke="#96bb7c" stroke-width="3" fill="#184d47"/><g><use xlink:href="#t" transform="matrix(1,0,0,1,285,985) translate(25.061728395061735 19.65277777777778)"/></g><defs><path fill="#333" d="M67-125c0 53 21 87 73 88 37 1 54-22 65-47l45 17C233-25 199 4 140 4 58 4 20-42 15-125 8-235 124-281 211-232c18 10 29 29 36 50l-46 12c-8-25-30-41-62-41-52 0-71 34-72 86" id="u"/><path fill="#333" d="M110-194c64 0 96 36 96 99 0 64-35 99-97 99-61 0-95-36-95-99 0-62 34-99 96-99zm-1 164c35 0 45-28 45-65 0-40-10-65-43-65-34 0-45 26-45 65 0 36 10 65 43 65" id="v"/><path fill="#333" d="M137-138c1-29-70-34-71-4 15 46 118 7 119 86 1 83-164 76-172 9l43-7c4 19 20 25 44 25 33 8 57-30 24-41C81-84 22-81 20-136c-2-80 154-74 161-7" id="w"/><path fill="#333" d="M115-3C79 11 28 4 28-45v-112H4v-33h27l15-45h31v45h36v33H77v99c-1 23 16 31 38 25v30" id="x"/><g id="a"><use transform="matrix(0.08641975308641973,0,0,0.08641975308641973,0,0)" xlink:href="#u"/><use transform="matrix(0.08641975308641973,0,0,0.08641975308641973,22.38271604938271,0)" xlink:href="#v"/><use transform="matrix(0.08641975308641973,0,0,0.08641975308641973,41.30864197530863,0)" xlink:href="#w"/><use transform="matrix(0.08641975308641973,0,0,0.08641975308641973,58.59259259259258,0)" xlink:href="#x"/></g><path fill="#fff" d="M197 0v-115H63V0H30v-248h33v105h134v-105h34V0h-34" id="y"/><path fill="#fff" d="M100-194c62-1 85 37 85 99 1 63-27 99-86 99S16-35 15-95c0-66 28-99 85-99zM99-20c44 1 53-31 53-75 0-43-8-75-51-75s-53 32-53 75 10 74 51 75" id="z"/><path fill="#fff" d="M143 0L79-87 56-68V0H24v-261h32v163l83-92h37l-77 82L181 0h-38" id="A"/><path fill="#fff" d="M115-194c53 0 69 39 70 98 0 66-23 100-70 100C84 3 66-7 56-30L54 0H23l1-261h32v101c10-23 28-34 59-34zm-8 174c40 0 45-34 45-75 0-40-5-75-45-74-42 0-51 32-51 76 0 43 10 73 51 73" id="B"/><path fill="#fff" d="M24-231v-30h32v30H24zM24 0v-190h32V0H24" id="C"/><path fill="#fff" d="M117-194c89-4 53 116 60 194h-32v-121c0-31-8-49-39-48C34-167 62-67 57 0H25l-1-190h30c1 10-1 24 2 32 11-22 29-35 61-36" id="D"/><g id="b"><use transform="matrix(0.06172839506172839,0,0,0.06172839506172839,0,0)" xlink:href="#y"/><use transform="matrix(0.06172839506172839,0,0,0.06172839506172839,15.987654320987653,0)" xlink:href="#z"/><use transform="matrix(0.06172839506172839,0,0,0.06172839506172839,28.333333333333332,0)" xlink:href="#z"/><use transform="matrix(0.06172839506172839,0,0,0.06172839506172839,40.67901234567901,0)" xlink:href="#A"/><use transform="matrix(0.06172839506172839,0,0,0.06172839506172839,51.79012345679013,0)" xlink:href="#B"/><use transform="matrix(0.06172839506172839,0,0,0.06172839506172839,64.13580246913581,0)" xlink:href="#C"/><use transform="matrix(0.06172839506172839,0,0,0.06172839506172839,69.01234567901236,0)" xlink:href="#D"/></g><path fill="#333" d="M63-220v92h138v28H63V0H30v-248h175v28H63" id="E"/><path fill="#333" d="M114-163C36-179 61-72 57 0H25l-1-190h30c1 12-1 29 2 39 6-27 23-49 58-41v29" id="F"/><path fill="#333" d="M100-194c63 0 86 42 84 106H49c0 40 14 67 53 68 26 1 43-12 49-29l28 8c-11 28-37 45-77 45C44 4 14-33 15-96c1-61 26-98 85-98zm52 81c6-60-76-77-97-28-3 7-6 17-6 28h103" id="G"/><g id="c"><use transform="matrix(0.06172839506172839,0,0,0.06172839506172839,0,0)" xlink:href="#E"/><use transform="matrix(0.06172839506172839,0,0,0.06172839506172839,13.518518518518517,0)" xlink:href="#F"/><use transform="matrix(0.06172839506172839,0,0,0.06172839506172839,20.864197530864196,0)" xlink:href="#G"/><use transform="matrix(0.06172839506172839,0,0,0.06172839506172839,33.20987654320987,0)" xlink:href="#G"/></g><path fill="#fff" d="M30-248c87 1 191-15 191 75 0 78-77 80-158 76V0H30v-248zm33 125c57 0 124 11 124-50 0-59-68-47-124-48v98" id="H"/><path fill="#fff" d="M135-143c-3-34-86-38-87 0 15 53 115 12 119 90S17 21 10-45l28-5c4 36 97 45 98 0-10-56-113-15-118-90-4-57 82-63 122-42 12 7 21 19 24 35" id="I"/><path fill="#fff" d="M59-47c-2 24 18 29 38 22v24C64 9 27 4 27-40v-127H5v-23h24l9-43h21v43h35v23H59v120" id="J"/><path fill="#fff" d="M210-169c-67 3-38 105-44 169h-31v-121c0-29-5-50-35-48C34-165 62-65 56 0H25l-1-190h30c1 10-1 24 2 32 10-44 99-50 107 0 11-21 27-35 58-36 85-2 47 119 55 194h-31v-121c0-29-5-49-35-48" id="K"/><path fill="#fff" d="M141-36C126-15 110 5 73 4 37 3 15-17 15-53c-1-64 63-63 125-63 3-35-9-54-41-54-24 1-41 7-42 31l-33-3c5-37 33-52 76-52 45 0 72 20 72 64v82c-1 20 7 32 28 27v20c-31 9-61-2-59-35zM48-53c0 20 12 33 32 33 41-3 63-29 60-74-43 2-92-5-92 41" id="L"/><g id="d"><use transform="matrix(0.06172839506172839,0,0,0.06172839506172839,0,0)" xlink:href="#H"/><use transform="matrix(0.06172839506172839,0,0,0.06172839506172839,14.814814814814813,0)" xlink:href="#z"/><use transform="matrix(0.06172839506172839,0,0,0.06172839506172839,27.160493827160494,0)" xlink:href="#I"/><use transform="matrix(0.06172839506172839,0,0,0.06172839506172839,38.27160493827161,0)" xlink:href="#J"/><use transform="matrix(0.06172839506172839,0,0,0.06172839506172839,44.44444444444445,0)" xlink:href="#K"/><use transform="matrix(0.06172839506172839,0,0,0.06172839506172839,62.90123456790124,0)" xlink:href="#L"/><use transform="matrix(0.06172839506172839,0,0,0.06172839506172839,75.24691358024693,0)" xlink:href="#D"/></g><path fill="#fff" d="M160-131c35 5 61 23 61 61C221 17 115-2 30 0v-248c76 3 177-17 177 60 0 33-19 50-47 57zm-97-11c50-1 110 9 110-42 0-47-63-36-110-37v79zm0 115c55-2 124 14 124-45 0-56-70-42-124-44v89" id="M"/><path fill="#fff" d="M114-163C36-179 61-72 57 0H25l-1-190h30c1 12-1 29 2 39 6-27 23-49 58-41v29" id="N"/><path fill="#fff" d="M85-194c31 0 48 13 60 33l-1-100h32l1 261h-30c-2-10 0-23-3-31C134-8 116 4 85 4 32 4 16-35 15-94c0-66 23-100 70-100zm9 24c-40 0-46 34-46 75 0 40 6 74 45 74 42 0 51-32 51-76 0-42-9-74-50-73" id="O"/><path fill="#fff" d="M177-190C167-65 218 103 67 71c-23-6-38-20-44-43l32-5c15 47 100 32 89-28v-30C133-14 115 1 83 1 29 1 15-40 15-95c0-56 16-97 71-98 29-1 48 16 59 35 1-10 0-23 2-32h30zM94-22c36 0 50-32 50-73 0-42-14-75-50-75-39 0-46 34-46 75s6 73 46 73" id="P"/><path fill="#fff" d="M100-194c63 0 86 42 84 106H49c0 40 14 67 53 68 26 1 43-12 49-29l28 8c-11 28-37 45-77 45C44 4 14-33 15-96c1-61 26-98 85-98zm52 81c6-60-76-77-97-28-3 7-6 17-6 28h103" id="Q"/><path fill="#fff" d="M205 0l-28-72H64L36 0H1l101-248h38L239 0h-34zm-38-99l-47-123c-12 45-31 82-46 123h93" id="R"/><path fill="#fff" d="M33 0v-248h34V0H33" id="S"/><g id="e"><use transform="matrix(0.06172839506172839,0,0,0.06172839506172839,0,0)" xlink:href="#M"/><use transform="matrix(0.06172839506172839,0,0,0.06172839506172839,14.814814814814813,0)" xlink:href="#N"/><use transform="matrix(0.06172839506172839,0,0,0.06172839506172839,22.160493827160494,0)" xlink:href="#C"/><use transform="matrix(0.06172839506172839,0,0,0.06172839506172839,27.037037037037038,0)" xlink:href="#O"/><use transform="matrix(0.06172839506172839,0,0,0.06172839506172839,39.382716049382715,0)" xlink:href="#P"/><use transform="matrix(0.06172839506172839,0,0,0.06172839506172839,51.72839506172839,0)" xlink:href="#Q"/><use transform="matrix(0.06172839506172839,0,0,0.06172839506172839,64.07407407407408,0)" xlink:href="#R"/><use transform="matrix(0.06172839506172839,0,0,0.06172839506172839,78.88888888888889,0)" xlink:href="#H"/><use transform="matrix(0.06172839506172839,0,0,0.06172839506172839,93.7037037037037,0)" xlink:href="#S"/></g><path fill="#333" d="M30-248c87 1 191-15 191 75 0 78-77 80-158 76V0H30v-248zm33 125c57 0 124 11 124-50 0-59-68-47-124-48v98" id="T"/><path fill="#333" d="M141-36C126-15 110 5 73 4 37 3 15-17 15-53c-1-64 63-63 125-63 3-35-9-54-41-54-24 1-41 7-42 31l-33-3c5-37 33-52 76-52 45 0 72 20 72 64v82c-1 20 7 32 28 27v20c-31 9-61-2-59-35zM48-53c0 20 12 33 32 33 41-3 63-29 60-74-43 2-92-5-92 41" id="U"/><path fill="#333" d="M24-231v-30h32v30H24zM24 0v-190h32V0H24" id="V"/><path fill="#333" d="M85-194c31 0 48 13 60 33l-1-100h32l1 261h-30c-2-10 0-23-3-31C134-8 116 4 85 4 32 4 16-35 15-94c0-66 23-100 70-100zm9 24c-40 0-46 34-46 75 0 40 6 74 45 74 42 0 51-32 51-76 0-42-9-74-50-73" id="W"/><g id="f"><use transform="matrix(0.06172839506172839,0,0,0.06172839506172839,0,0)" xlink:href="#T"/><use transform="matrix(0.06172839506172839,0,0,0.06172839506172839,14.814814814814813,0)" xlink:href="#U"/><use transform="matrix(0.06172839506172839,0,0,0.06172839506172839,27.160493827160494,0)" xlink:href="#V"/><use transform="matrix(0.06172839506172839,0,0,0.06172839506172839,32.03703703703704,0)" xlink:href="#W"/></g><path fill="#fff" d="M209 0H11v-25l151-195H24v-28h176v25L50-27h159V0" id="X"/><path fill="#fff" d="M115-194c55 1 70 41 70 98S169 2 115 4C84 4 66-9 55-30l1 105H24l-1-265h31l2 30c10-21 28-34 59-34zm-8 174c40 0 45-34 45-75s-6-73-45-74c-42 0-51 32-51 76 0 43 10 73 51 73" id="Y"/><g id="g"><use transform="matrix(0.06172839506172839,0,0,0.06172839506172839,0,0)" xlink:href="#X"/><use transform="matrix(0.06172839506172839,0,0,0.06172839506172839,13.518518518518517,0)" xlink:href="#L"/><use transform="matrix(0.06172839506172839,0,0,0.06172839506172839,25.864197530864196,0)" xlink:href="#Y"/><use transform="matrix(0.06172839506172839,0,0,0.06172839506172839,38.20987654320987,0)" xlink:href="#C"/><use transform="matrix(0.06172839506172839,0,0,0.06172839506172839,43.08641975308642,0)" xlink:href="#Q"/><use transform="matrix(0.06172839506172839,0,0,0.06172839506172839,55.432098765432094,0)" xlink:href="#N"/></g><g id="h"><use transform="matrix(0.06172839506172839,0,0,0.06172839506172839,0,0)" xlink:href="#H"/><use transform="matrix(0.06172839506172839,0,0,0.06172839506172839,14.814814814814813,0)" xlink:href="#C"/><use transform="matrix(0.06172839506172839,0,0,0.06172839506172839,19.691358024691354,0)" xlink:href="#Y"/><use transform="matrix(0.06172839506172839,0,0,0.06172839506172839,32.03703703703703,0)" xlink:href="#Q"/><use transform="matrix(0.06172839506172839,0,0,0.06172839506172839,44.38271604938271,0)" xlink:href="#O"/><use transform="matrix(0.06172839506172839,0,0,0.06172839506172839,56.728395061728385,0)" xlink:href="#N"/><use transform="matrix(0.06172839506172839,0,0,0.06172839506172839,64.07407407407406,0)" xlink:href="#Q"/><use transform="matrix(0.06172839506172839,0,0,0.06172839506172839,76.41975308641975,0)" xlink:href="#L"/><use transform="matrix(0.06172839506172839,0,0,0.06172839506172839,88.76543209876543,0)" xlink:href="#K"/></g><path fill="#333" d="M238-95c0 69-44 99-111 99C63 4 22-25 22-93v-155h51v151c-1 38 19 59 55 60 90 1 49-130 58-211h52v153" id="Z"/><path fill="#333" d="M185-48c-13 30-37 53-82 52C43 2 14-33 14-96s30-98 90-98c62 0 83 45 84 108H66c0 31 8 55 39 56 18 0 30-7 34-22zm-45-69c5-46-57-63-70-21-2 6-4 13-4 21h74" id="aa"/><path fill="#333" d="M135-150c-39-12-60 13-60 57V0H25l-1-190h47c2 13-1 29 3 40 6-28 27-53 61-41v41" id="ab"/><g id="i"><use transform="matrix(0.08641975308641973,0,0,0.08641975308641973,0,0)" xlink:href="#Z"/><use transform="matrix(0.08641975308641973,0,0,0.08641975308641973,22.38271604938271,0)" xlink:href="#w"/><use transform="matrix(0.08641975308641973,0,0,0.08641975308641973,39.66666666666666,0)" xlink:href="#aa"/><use transform="matrix(0.08641975308641973,0,0,0.08641975308641973,56.950617283950606,0)" xlink:href="#ab"/></g><path fill="#333" d="M190-63c-7 42-38 67-86 67-59 0-84-38-90-98-12-110 154-137 174-36l-49 2c-2-19-15-32-35-32-30 0-35 28-38 64-6 74 65 87 74 30" id="ac"/><path fill="#333" d="M135-194c87-1 58 113 63 194h-50c-7-57 23-157-34-157-59 0-34 97-39 157H25l-1-190h47c2 12-1 28 3 38 12-26 28-41 61-42" id="ad"/><path fill="#333" d="M25 0v-261h50V0H25" id="ae"/><g id="j"><use transform="matrix(0.08641975308641973,0,0,0.08641975308641973,0,0)" xlink:href="#ac"/><use transform="matrix(0.08641975308641973,0,0,0.08641975308641973,17.283950617283946,0)" xlink:href="#v"/><use transform="matrix(0.08641975308641973,0,0,0.08641975308641973,36.209876543209866,0)" xlink:href="#ad"/><use transform="matrix(0.08641975308641973,0,0,0.08641975308641973,55.13580246913578,0)" xlink:href="#x"/><use transform="matrix(0.08641975308641973,0,0,0.08641975308641973,65.41975308641973,0)" xlink:href="#ab"/><use transform="matrix(0.08641975308641973,0,0,0.08641975308641973,77.51851851851849,0)" xlink:href="#v"/><use transform="matrix(0.08641975308641973,0,0,0.08641975308641973,96.44444444444443,0)" xlink:href="#ae"/></g><path fill="#333" d="M24-248c93 1 206-16 204 79-1 75-69 88-152 82V0H24v-248zm52 121c47 0 100 7 100-41 0-47-54-39-100-39v80" id="af"/><path fill="#333" d="M25-224v-37h50v37H25zM25 0v-190h50V0H25" id="ag"/><path fill="#333" d="M128 0H69L1-190h53L99-40l48-150h52" id="ah"/><path fill="#333" d="M133-34C117-15 103 5 69 4 32 3 11-16 11-54c-1-60 55-63 116-61 1-26-3-47-28-47-18 1-26 9-28 27l-52-2c7-38 36-58 82-57s74 22 75 68l1 82c-1 14 12 18 25 15v27c-30 8-71 5-69-32zm-48 3c29 0 43-24 42-57-32 0-66-3-65 30 0 17 8 27 23 27" id="ai"/><path fill="#333" d="M123 10C108 53 80 86 19 72V37c35 8 53-11 59-39L3-190h52l48 148c12-52 28-100 44-148h51" id="aj"/><g id="k"><use transform="matrix(0.08641975308641973,0,0,0.08641975308641973,0,0)" xlink:href="#af"/><use transform="matrix(0.08641975308641973,0,0,0.08641975308641973,20.740740740740737,0)" xlink:href="#ab"/><use transform="matrix(0.08641975308641973,0,0,0.08641975308641973,32.8395061728395,0)" xlink:href="#ag"/><use transform="matrix(0.08641975308641973,0,0,0.08641975308641973,41.481481481481474,0)" xlink:href="#ah"/><use transform="matrix(0.08641975308641973,0,0,0.08641975308641973,58.765432098765416,0)" xlink:href="#ai"/><use transform="matrix(0.08641975308641973,0,0,0.08641975308641973,76.04938271604937,0)" xlink:href="#ac"/><use transform="matrix(0.08641975308641973,0,0,0.08641975308641973,93.33333333333331,0)" xlink:href="#aj"/></g><path fill="#333" d="M210-169c-67 3-38 105-44 169h-31v-121c0-29-5-50-35-48C34-165 62-65 56 0H25l-1-190h30c1 10-1 24 2 32 10-44 99-50 107 0 11-21 27-35 58-36 85-2 47 119 55 194h-31v-121c0-29-5-49-35-48" id="ak"/><path fill="#333" d="M135-143c-3-34-86-38-87 0 15 53 115 12 119 90S17 21 10-45l28-5c4 36 97 45 98 0-10-56-113-15-118-90-4-57 82-63 122-42 12 7 21 19 24 35" id="al"/><path fill="#333" d="M100-194c62-1 85 37 85 99 1 63-27 99-86 99S16-35 15-95c0-66 28-99 85-99zM99-20c44 1 53-31 53-75 0-43-8-75-51-75s-53 32-53 75 10 74 51 75" id="am"/><path fill="#333" d="M117-194c89-4 53 116 60 194h-32v-121c0-31-8-49-39-48C34-167 62-67 57 0H25l-1-190h30c1 10-1 24 2 32 11-22 29-35 61-36" id="an"/><path fill="#333" d="M24 0v-261h32V0H24" id="ao"/><g id="l"><use transform="matrix(0.06172839506172839,0,0,0.06172839506172839,0,0)" xlink:href="#T"/><use transform="matrix(0.06172839506172839,0,0,0.06172839506172839,14.814814814814813,0)" xlink:href="#G"/><use transform="matrix(0.06172839506172839,0,0,0.06172839506172839,27.160493827160494,0)" xlink:href="#F"/><use transform="matrix(0.06172839506172839,0,0,0.06172839506172839,34.50617283950617,0)" xlink:href="#ak"/><use transform="matrix(0.06172839506172839,0,0,0.06172839506172839,52.96296296296296,0)" xlink:href="#V"/><use transform="matrix(0.06172839506172839,0,0,0.06172839506172839,57.839506172839506,0)" xlink:href="#al"/><use transform="matrix(0.06172839506172839,0,0,0.06172839506172839,68.95061728395062,0)" xlink:href="#al"/><use transform="matrix(0.06172839506172839,0,0,0.06172839506172839,80.06172839506173,0)" xlink:href="#V"/><use transform="matrix(0.06172839506172839,0,0,0.06172839506172839,84.93827160493828,0)" xlink:href="#am"/><use transform="matrix(0.06172839506172839,0,0,0.06172839506172839,97.28395061728396,0)" xlink:href="#an"/><use transform="matrix(0.06172839506172839,0,0,0.06172839506172839,109.62962962962965,0)" xlink:href="#ao"/><use transform="matrix(0.06172839506172839,0,0,0.06172839506172839,114.50617283950619,0)" xlink:href="#G"/><use transform="matrix(0.06172839506172839,0,0,0.06172839506172839,126.85185185185188,0)" xlink:href="#al"/><use transform="matrix(0.06172839506172839,0,0,0.06172839506172839,137.962962962963,0)" xlink:href="#al"/></g><path fill="#333" d="M33 0v-248h34V0H33" id="ap"/><path fill="#333" d="M59-47c-2 24 18 29 38 22v24C64 9 27 4 27-40v-127H5v-23h24l9-43h21v43h35v23H59v120" id="aq"/><path fill="#333" d="M84 4C-5 8 30-112 23-190h32v120c0 31 7 50 39 49 72-2 45-101 50-169h31l1 190h-30c-1-10 1-25-2-33-11 22-28 36-60 37" id="ar"/><path fill="#333" d="M108 0H70L1-190h34L89-25l56-165h34" id="as"/><g id="m"><use transform="matrix(0.06172839506172839,0,0,0.06172839506172839,0,0)" xlink:href="#ap"/><use transform="matrix(0.06172839506172839,0,0,0.06172839506172839,6.172839506172839,0)" xlink:href="#an"/><use transform="matrix(0.06172839506172839,0,0,0.06172839506172839,18.51851851851852,0)" xlink:href="#aq"/><use transform="matrix(0.06172839506172839,0,0,0.06172839506172839,24.691358024691358,0)" xlink:href="#F"/><use transform="matrix(0.06172839506172839,0,0,0.06172839506172839,32.03703703703704,0)" xlink:href="#ar"/><use transform="matrix(0.06172839506172839,0,0,0.06172839506172839,44.382716049382715,0)" xlink:href="#al"/><use transform="matrix(0.06172839506172839,0,0,0.06172839506172839,55.49382716049382,0)" xlink:href="#V"/><use transform="matrix(0.06172839506172839,0,0,0.06172839506172839,60.37037037037037,0)" xlink:href="#as"/><use transform="matrix(0.06172839506172839,0,0,0.06172839506172839,71.48148148148148,0)" xlink:href="#G"/></g><path fill="#333" d="M199 0l-22-63H83L61 0H9l90-248h61L250 0h-51zm-33-102l-36-108c-10 38-24 72-36 108h72" id="at"/><path fill="#333" d="M135-194c52 0 70 43 70 98 0 56-19 99-73 100-30 1-46-15-58-35L72 0H24l1-261h50v104c11-23 29-37 60-37zM114-30c31 0 40-27 40-66 0-37-7-63-39-63s-41 28-41 65c0 36 8 64 40 64" id="au"/><g id="n"><use transform="matrix(0.08641975308641973,0,0,0.08641975308641973,0,0)" xlink:href="#at"/><use transform="matrix(0.08641975308641973,0,0,0.08641975308641973,21.259259259259256,0)" xlink:href="#ah"/><use transform="matrix(0.08641975308641973,0,0,0.08641975308641973,38.5432098765432,0)" xlink:href="#ai"/><use transform="matrix(0.08641975308641973,0,0,0.08641975308641973,55.82716049382715,0)" xlink:href="#ag"/><use transform="matrix(0.08641975308641973,0,0,0.08641975308641973,64.46913580246913,0)" xlink:href="#ae"/><use transform="matrix(0.08641975308641973,0,0,0.08641975308641973,73.1111111111111,0)" xlink:href="#ai"/><use transform="matrix(0.08641975308641973,0,0,0.08641975308641973,90.39506172839505,0)" xlink:href="#au"/><use transform="matrix(0.08641975308641973,0,0,0.08641975308641973,109.32098765432096,0)" xlink:href="#ag"/><use transform="matrix(0.08641975308641973,0,0,0.08641975308641973,117.96296296296296,0)" xlink:href="#ae"/><use transform="matrix(0.08641975308641973,0,0,0.08641975308641973,126.60493827160494,0)" xlink:href="#ag"/><use transform="matrix(0.08641975308641973,0,0,0.08641975308641973,135.24691358024688,0)" xlink:href="#x"/><use transform="matrix(0.08641975308641973,0,0,0.08641975308641973,145.53086419753083,0)" xlink:href="#aj"/></g><path fill="#333" d="M140-251c81 0 123 46 123 126C263-46 219 4 140 4 59 4 17-45 17-125s42-126 123-126zm0 227c63 0 89-41 89-101s-29-99-89-99c-61 0-89 39-89 99S79-25 140-24" id="av"/><path fill="#333" d="M115-194c55 1 70 41 70 98S169 2 115 4C84 4 66-9 55-30l1 105H24l-1-265h31l2 30c10-21 28-34 59-34zm-8 174c40 0 45-34 45-75s-6-73-45-74c-42 0-51 32-51 76 0 43 10 73 51 73" id="aw"/><path fill="#333" d="M16-82v-28h88v28H16" id="ax"/><path fill="#333" d="M96-169c-40 0-48 33-48 73s9 75 48 75c24 0 41-14 43-38l32 2c-6 37-31 61-74 61-59 0-76-41-82-99-10-93 101-131 147-64 4 7 5 14 7 22l-32 3c-4-21-16-35-41-35" id="ay"/><g id="o"><use transform="matrix(0.06172839506172839,0,0,0.06172839506172839,0,0)" xlink:href="#av"/><use transform="matrix(0.06172839506172839,0,0,0.06172839506172839,17.28395061728395,0)" xlink:href="#aw"/><use transform="matrix(0.06172839506172839,0,0,0.06172839506172839,29.629629629629626,0)" xlink:href="#G"/><use transform="matrix(0.06172839506172839,0,0,0.06172839506172839,41.9753086419753,0)" xlink:href="#an"/><use transform="matrix(0.06172839506172839,0,0,0.06172839506172839,54.32098765432098,0)" xlink:href="#ax"/><use transform="matrix(0.06172839506172839,0,0,0.06172839506172839,61.66666666666666,0)" xlink:href="#al"/><use transform="matrix(0.06172839506172839,0,0,0.06172839506172839,72.77777777777777,0)" xlink:href="#am"/><use transform="matrix(0.06172839506172839,0,0,0.06172839506172839,85.12345679012346,0)" xlink:href="#ar"/><use transform="matrix(0.06172839506172839,0,0,0.06172839506172839,97.46913580246914,0)" xlink:href="#F"/><use transform="matrix(0.06172839506172839,0,0,0.06172839506172839,104.81481481481482,0)" xlink:href="#ay"/><use transform="matrix(0.06172839506172839,0,0,0.06172839506172839,115.92592592592594,0)" xlink:href="#G"/></g><path fill="#333" d="M179-190L93 31C79 59 56 82 12 73V49c39 6 53-20 64-50L1-190h34L92-34l54-156h33" id="az"/><g id="p"><use transform="matrix(0.06172839506172839,0,0,0.06172839506172839,0,0)" xlink:href="#T"/><use transform="matrix(0.06172839506172839,0,0,0.06172839506172839,14.814814814814813,0)" xlink:href="#F"/><use transform="matrix(0.06172839506172839,0,0,0.06172839506172839,22.160493827160494,0)" xlink:href="#am"/><use transform="matrix(0.06172839506172839,0,0,0.06172839506172839,34.50617283950617,0)" xlink:href="#aw"/><use transform="matrix(0.06172839506172839,0,0,0.06172839506172839,46.85185185185185,0)" xlink:href="#F"/><use transform="matrix(0.06172839506172839,0,0,0.06172839506172839,54.197530864197525,0)" xlink:href="#V"/><use transform="matrix(0.06172839506172839,0,0,0.06172839506172839,59.07407407407407,0)" xlink:href="#G"/><use transform="matrix(0.06172839506172839,0,0,0.06172839506172839,71.41975308641975,0)" xlink:href="#aq"/><use transform="matrix(0.06172839506172839,0,0,0.06172839506172839,77.59259259259258,0)" xlink:href="#U"/><use transform="matrix(0.06172839506172839,0,0,0.06172839506172839,89.93827160493827,0)" xlink:href="#F"/><use transform="matrix(0.06172839506172839,0,0,0.06172839506172839,97.28395061728395,0)" xlink:href="#az"/></g><path fill="#333" d="M30 0v-248h33v221h125V0H30" id="aA"/><g id="q"><use transform="matrix(0.06172839506172839,0,0,0.06172839506172839,0,0)" xlink:href="#aA"/><use transform="matrix(0.06172839506172839,0,0,0.06172839506172839,12.345679012345679,0)" xlink:href="#G"/><use transform="matrix(0.06172839506172839,0,0,0.06172839506172839,24.691358024691358,0)" xlink:href="#al"/><use transform="matrix(0.06172839506172839,0,0,0.06172839506172839,35.80246913580247,0)" xlink:href="#al"/></g><path fill="#333" d="M101-234c-31-9-42 10-38 44h38v23H63V0H32v-167H5v-23h27c-7-52 17-82 69-68v24" id="aB"/><g id="r"><use transform="matrix(0.06172839506172839,0,0,0.06172839506172839,0,0)" xlink:href="#aB"/><use transform="matrix(0.06172839506172839,0,0,0.06172839506172839,6.172839506172839,0)" xlink:href="#G"/><use transform="matrix(0.06172839506172839,0,0,0.06172839506172839,18.51851851851852,0)" xlink:href="#U"/><use transform="matrix(0.06172839506172839,0,0,0.06172839506172839,30.864197530864196,0)" xlink:href="#aq"/><use transform="matrix(0.06172839506172839,0,0,0.06172839506172839,37.03703703703704,0)" xlink:href="#ar"/><use transform="matrix(0.06172839506172839,0,0,0.06172839506172839,49.382716049382715,0)" xlink:href="#F"/><use transform="matrix(0.06172839506172839,0,0,0.06172839506172839,56.72839506172839,0)" xlink:href="#G"/><use transform="matrix(0.06172839506172839,0,0,0.06172839506172839,69.07407407407408,0)" xlink:href="#al"/></g><path fill="#333" d="M240 0l2-218c-23 76-54 145-80 218h-23L58-218 59 0H30v-248h44l77 211c21-75 51-140 76-211h43V0h-30" id="aC"/><g id="s"><use transform="matrix(0.06172839506172839,0,0,0.06172839506172839,0,0)" xlink:href="#aC"/><use transform="matrix(0.06172839506172839,0,0,0.06172839506172839,18.456790123456788,0)" xlink:href="#am"/><use transform="matrix(0.06172839506172839,0,0,0.06172839506172839,30.80246913580247,0)" xlink:href="#F"/><use transform="matrix(0.06172839506172839,0,0,0.06172839506172839,38.148148148148145,0)" xlink:href="#G"/></g><g id="t"><use transform="matrix(0.06172839506172839,0,0,0.06172839506172839,0,0)" xlink:href="#M"/><use transform="matrix(0.06172839506172839,0,0,0.06172839506172839,14.814814814814813,0)" xlink:href="#N"/><use transform="matrix(0.06172839506172839,0,0,0.06172839506172839,22.160493827160494,0)" xlink:href="#C"/><use transform="matrix(0.06172839506172839,0,0,0.06172839506172839,27.037037037037038,0)" xlink:href="#O"/><use transform="matrix(0.06172839506172839,0,0,0.06172839506172839,39.382716049382715,0)" xlink:href="#P"/><use transform="matrix(0.06172839506172839,0,0,0.06172839506172839,51.72839506172839,0)" xlink:href="#Q"/><use transform="matrix(0.06172839506172839,0,0,0.06172839506172839,64.07407407407408,0)" xlink:href="#R"/><use transform="matrix(0.06172839506172839,0,0,0.06172839506172839,78.88888888888889,0)" xlink:href="#H"/><use transform="matrix(0.06172839506172839,0,0,0.06172839506172839,93.7037037037037,0)" xlink:href="#S"/></g></defs></g></svg>